<svg width="1660" height="461" viewBox="0 0 1660 461" fill="none" xmlns="http://www.w3.org/2000/svg">
<path fill-rule="evenodd" clip-rule="evenodd" d="M168.4 164.6L121.2 55.4L76.4 164.6H168.4ZM-10 283V277.4H23.6L142.8 -13H153.6L279.6 277.4H313.516H314H350.316V3.8H313.516V-1.8H373.916C385.116 -1.8 396.182 -1.93334 407.116 -2.20002C418.049 -2.73335 429.116 -3.00001 440.316 -3.00001C450.716 -3.00001 461.649 -1.93334 473.116 0.199993C484.582 2.33331 494.982 5.93332 504.316 11C513.916 16.0667 521.782 22.8667 527.916 31.4C534.049 39.9333 537.116 50.6 537.116 63.4C537.116 74.8667 534.049 84.6 527.916 92.6C522.049 100.333 514.849 106.733 506.316 111.8C497.782 116.867 488.849 120.733 479.516 123.4C470.449 126.067 462.716 127.8 456.316 128.6V130.2C466.716 131 477.516 132.733 488.716 135.4C499.916 138.067 510.182 142.333 519.516 148.2C528.849 153.8 536.582 161.267 542.716 170.6C548.849 179.933 551.916 191.667 551.916 205.8C551.916 221.267 547.916 234.067 539.916 244.2C532.182 254.333 522.582 262.333 511.116 268.2C499.916 274.067 487.916 278.2 475.116 280.6C462.316 282.733 450.849 283.8 440.716 283.8C429.516 283.8 418.316 283.667 407.116 283.4C396.182 283.133 385.116 283 373.916 283H314H313.516H179.6V277.4H216.8L170.4 170.2H74.4L30 277.4H65.6V283H-10ZM408.316 3.8V127.4H424.716C436.716 127.4 446.182 125.8 453.116 122.6C460.049 119.4 465.249 115.133 468.716 109.8C472.182 104.2 474.316 97.9333 475.116 91C476.182 84.0667 476.716 77 476.716 69.8C476.716 58.0667 475.916 48.0667 474.316 39.8C472.716 31.2666 470.049 24.3333 466.316 19C462.582 13.4 457.382 9.26665 450.716 6.59998C444.316 3.93332 436.049 2.59999 425.916 2.59999C422.982 2.59999 420.049 2.73332 417.116 2.99998L408.316 3.8ZM408.316 133V277.4C415.516 278.2 423.249 278.6 431.516 278.6C440.049 278.6 447.649 277.667 454.316 275.8C461.249 273.667 467.116 269.8 471.916 264.2C476.716 258.6 480.316 250.867 482.716 241C485.382 230.867 486.716 217.667 486.716 201.4C486.716 196.867 486.316 190.867 485.516 183.4C484.716 175.667 482.449 168.067 478.716 160.6C475.249 153.133 469.782 146.733 462.316 141.4C455.116 135.8 444.849 133 431.516 133H408.316ZM654.144 83.4C652.277 101 651.344 120.333 651.344 141.4C651.344 169.133 652.944 192.2 656.144 210.6C659.344 228.733 664.277 243.267 670.944 254.2C677.877 264.867 686.677 272.333 697.344 276.6C708.277 280.867 721.21 283 736.144 283C755.877 283 771.344 279.4 782.544 272.2C793.744 264.733 802.144 254.6 807.744 241.8C813.344 228.733 816.81 213.4 818.144 195.8C819.744 177.933 820.544 158.6 820.544 137.8C820.544 119.133 819.877 101.4 818.544 84.6C817.477 67.5333 814.144 52.6 808.544 39.8C802.944 26.7333 794.41 16.4667 782.944 8.99998C771.744 1.26665 756.144 -2.60002 736.144 -2.60002C717.477 -2.60002 702.544 0.999983 691.344 8.19999C680.144 15.1333 671.61 25 665.744 37.8C659.877 50.6 656.01 65.8 654.144 83.4ZM598.544 199.4C590.277 181.533 586.144 162.2 586.144 141.4C586.144 118.733 590.677 98.2 599.744 79.8C609.077 61.4 620.944 45.6667 635.344 32.6C649.744 19.5333 665.877 9.53333 683.744 2.59999C701.61 -4.60002 719.077 -8.20002 736.144 -8.20002C754.544 -8.20002 772.677 -4.73335 790.544 2.19999C808.677 9.13331 824.677 19 838.544 31.8C852.677 44.6 864.01 60.2 872.544 78.6C881.344 96.7333 885.744 117.267 885.744 140.2C885.744 160.2 881.61 179.267 873.344 197.4C865.344 215.267 854.41 231 840.544 244.6C826.944 258.2 811.077 269 792.944 277C775.077 284.733 756.144 288.6 736.144 288.6C716.41 288.6 697.477 284.867 679.344 277.4C661.21 269.667 645.21 259.267 631.344 246.2C617.744 232.867 606.81 217.267 598.544 199.4ZM911.347 3.8V-1.8H1043.35V3.8H1006.55V183.4C1006.55 195.933 1007.08 208.2 1008.15 220.2C1009.48 231.933 1012.28 242.467 1016.55 251.8C1021.08 261.133 1027.61 268.733 1036.15 274.6C1044.95 280.2 1056.68 283 1071.35 283C1085.75 283 1097.75 281.4 1107.35 278.2C1117.21 274.733 1125.35 270.333 1131.75 265C1138.15 259.4 1143.08 253.267 1146.55 246.6C1150.01 239.667 1152.55 232.867 1154.15 226.2C1155.75 219.267 1156.68 212.867 1156.95 207C1157.21 200.867 1157.35 195.8 1157.35 191.8V3.8H1120.95V-1.8H1200.95V3.8H1163.75V191.4C1163.75 195.667 1163.61 201.133 1163.35 207.8C1163.08 214.2 1162.01 221 1160.15 228.2C1158.28 235.4 1155.48 242.6 1151.75 249.8C1148.01 257 1142.55 263.533 1135.35 269.4C1128.15 275 1119.08 279.533 1108.15 283C1097.21 286.733 1083.75 288.6 1067.75 288.6C1041.88 288.6 1021.08 285.8 1005.35 280.2C989.614 274.333 977.48 266.867 968.947 257.8C960.68 248.467 955.214 237.933 952.547 226.2C949.88 214.467 948.547 202.6 948.547 190.6V3.8H911.347ZM1317.88 277.4V3.8H1303.47C1293.61 3.8 1284.81 4.86666 1277.07 6.99998C1269.34 8.86665 1262.41 12.3333 1256.28 17.4C1250.14 22.2 1244.68 29 1239.88 37.8C1235.07 46.6 1230.68 57.8 1226.68 71.4H1221.47V-1.8H1472.28V71.4H1467.08C1463.07 57.8 1458.68 46.6 1453.88 37.8C1449.08 29 1443.61 22.2 1437.47 17.4C1431.34 12.3333 1424.41 8.86665 1416.68 6.99998C1408.94 4.86666 1400.14 3.8 1390.28 3.8H1375.88V277.4H1412.68V283H1389.5V394.75C1389.5 402.583 1389.83 410.25 1390.5 417.75C1391.33 425.083 1393.08 431.667 1395.75 437.5C1398.58 443.333 1402.67 448.083 1408 451.75C1413.5 455.25 1420.83 457 1430 457C1439 457 1446.5 456 1452.5 454C1458.67 451.833 1463.75 449.083 1467.75 445.75C1471.75 442.25 1474.83 438.417 1477 434.25C1479.17 429.917 1480.75 425.667 1481.75 421.5C1482.75 417.167 1483.33 413.167 1483.5 409.5C1483.67 405.667 1483.75 402.5 1483.75 400V282.5H1461V279H1511V282.5H1487.75V399.75C1487.75 402.417 1487.67 405.833 1487.5 410C1487.33 414 1486.67 418.25 1485.5 422.75C1484.33 427.25 1482.58 431.75 1480.25 436.25C1477.92 440.75 1474.5 444.833 1470 448.5C1465.5 452 1459.83 454.833 1453 457C1446.17 459.333 1437.75 460.5 1427.75 460.5C1411.58 460.5 1398.58 458.75 1388.75 455.25C1378.92 451.583 1371.33 446.917 1366 441.25C1360.83 435.417 1357.42 428.833 1355.75 421.5C1354.08 414.167 1353.25 406.75 1353.25 399.25V283H1281.07V277.4H1317.88ZM1529.83 457V401.5H1533.58C1533.91 403.5 1534.5 406.167 1535.33 409.5C1536.16 412.667 1537.33 416.167 1538.83 420C1540.5 423.667 1542.5 427.5 1544.83 431.5C1547.33 435.333 1550.33 438.917 1553.83 442.25C1557.66 446.083 1561.33 449 1564.83 451C1568.5 453 1571.91 454.5 1575.08 455.5C1578.41 456.333 1581.5 456.833 1584.33 457H1592.58C1601.41 457 1608.66 455.667 1614.33 453C1620 450.167 1624.41 446.75 1627.58 442.75C1630.91 438.75 1633.25 434.583 1634.58 430.25C1635.91 425.75 1636.58 421.833 1636.58 418.5C1636.58 412.333 1635.08 407.25 1632.08 403.25C1629.25 399.25 1625.41 395.917 1620.58 393.25C1615.75 390.583 1610.25 388.333 1604.08 386.5C1597.91 384.667 1591.58 382.833 1585.08 381C1578.58 379 1572.25 376.75 1566.08 374.25C1559.91 371.583 1554.41 368.25 1549.58 364.25C1544.75 360.083 1540.83 355 1537.83 349C1535 343 1533.58 335.5 1533.58 326.5C1533.58 319.833 1535.08 313.417 1538.08 307.25C1541.08 301.083 1545.25 295.667 1550.58 291C1555.91 286.167 1562.25 282.333 1569.58 279.5C1577.08 276.5 1585.16 275 1593.83 275C1599.33 275 1604.16 275.5 1608.33 276.5C1612.5 277.5 1616.16 278.583 1619.33 279.75C1622.5 280.75 1625.25 281.75 1627.58 282.75C1630.08 283.75 1632.33 284.25 1634.33 284.25C1636.66 284.25 1638.16 283.917 1638.83 283.25C1639.66 282.417 1640.5 281 1641.33 279H1645.33V326.5H1642.08C1640.08 320.667 1637.91 314.917 1635.58 309.25C1633.41 303.583 1630.58 298.5 1627.08 294C1623.58 289.333 1619.16 285.583 1613.83 282.75C1608.5 279.917 1601.75 278.5 1593.58 278.5C1586.91 278.5 1581 279.417 1575.83 281.25C1570.83 283.083 1566.58 285.5 1563.08 288.5C1559.58 291.5 1556.91 294.833 1555.08 298.5C1553.25 302.167 1552.33 305.917 1552.33 309.75C1552.33 315.583 1553.83 320.417 1556.83 324.25C1560 328.083 1564.08 331.417 1569.08 334.25C1574.08 336.917 1579.75 339.25 1586.08 341.25C1592.58 343.25 1599.16 345.333 1605.83 347.5C1612.66 349.667 1619.25 352.083 1625.58 354.75C1632.08 357.25 1637.83 360.5 1642.83 364.5C1647.83 368.5 1651.83 373.333 1654.83 379C1658 384.667 1659.58 391.667 1659.58 400C1659.58 408.167 1657.91 415.917 1654.58 423.25C1651.25 430.583 1646.5 437 1640.33 442.5C1634.33 448 1627.08 452.417 1618.58 455.75C1610.25 458.917 1600.91 460.5 1590.58 460.5C1585.41 460.5 1580.25 460 1575.08 459C1570.08 458 1565.33 457 1560.83 456C1556.5 454.833 1552.58 453.75 1549.08 452.75C1545.75 451.75 1543.25 451.25 1541.58 451.25C1539.25 451.25 1537.58 451.667 1536.58 452.5C1535.58 453.167 1534.66 454.667 1533.83 457H1529.83Z" fill="#898989" fill-opacity="0.35"/>
</svg>
