<svg width="664" height="165" viewBox="0 0 664 165" fill="none" xmlns="http://www.w3.org/2000/svg">
<path d="M52.84 75.42V7.44C54.4533 7.29332 56.0667 7.14665 57.68 6.99999C59.2933 6.85332 60.9067 6.77999 62.52 6.77999C68.0933 6.77999 72.64 7.51332 76.16 8.97999C79.8267 10.4467 82.6867 12.72 84.74 15.8C86.7933 18.7333 88.26 22.5467 89.14 27.24C90.02 31.7867 90.46 37.2867 90.46 43.74C90.46 47.7 90.1667 51.5867 89.58 55.4C89.14 59.2133 87.9667 62.66 86.06 65.74C84.1533 68.6733 81.2933 71.02 77.48 72.78C73.6667 74.54 68.46 75.42 61.86 75.42H52.84ZM52.84 157.92V78.5H65.6C72.9333 78.5 78.58 80.04 82.54 83.12C86.6467 86.0533 89.6533 89.5733 91.56 93.68C93.6133 97.7867 94.86 101.967 95.3 106.22C95.74 110.327 95.96 113.627 95.96 116.12C95.96 125.067 95.2267 132.327 93.76 137.9C92.44 143.327 90.46 147.58 87.82 150.66C85.18 153.74 81.9533 155.867 78.14 157.04C74.4733 158.067 70.2933 158.58 65.6 158.58C61.0533 158.58 56.8 158.36 52.84 157.92ZM20.94 7.44V157.92H0.7V161H33.92C40.08 161 46.1667 161.073 52.18 161.22C58.34 161.367 64.5 161.44 70.66 161.44C76.2333 161.44 82.54 160.853 89.58 159.68C96.62 158.36 103.22 156.087 109.38 152.86C115.687 149.633 120.967 145.233 125.22 139.66C129.62 134.087 131.82 127.047 131.82 118.54C131.82 110.767 130.133 104.313 126.76 99.18C123.387 94.0467 119.133 89.94 114 86.86C108.867 83.6333 103.22 81.2867 97.06 79.82C90.9 78.3533 84.96 77.4 79.24 76.96V76.08C82.76 75.64 87.0133 74.6867 92 73.22C97.1333 71.7533 102.047 69.6267 106.74 66.84C111.433 64.0533 115.393 60.5333 118.62 56.28C121.993 51.88 123.68 46.5267 123.68 40.22C123.68 33.18 121.993 27.3133 118.62 22.62C115.247 17.9267 110.92 14.1867 105.64 11.4C100.507 8.61332 94.7867 6.63332 88.48 5.46C82.1733 4.28666 76.16 3.69999 70.44 3.69999C64.28 3.69999 58.1933 3.84666 52.18 4.13999C46.1667 4.28666 40.08 4.36 33.92 4.36H0.7V7.44H20.94ZM157.025 4.36V7.44H177.265V157.92H157.025V161H296.505V111.28H293.645C291.739 119.787 289.025 127.047 285.505 133.06C282.132 138.927 278.245 143.767 273.845 147.58C269.592 151.247 264.972 153.887 259.985 155.5C255.145 157.113 250.305 157.92 245.465 157.92H209.165V7.44H229.405V4.36H157.025ZM354.075 83.12C354.075 71.5333 354.588 60.9 355.615 51.22C356.642 41.54 358.768 33.18 361.995 26.14C365.222 19.1 369.915 13.6733 376.075 9.85999C382.235 5.89999 390.448 3.91999 400.715 3.91999C411.715 3.91999 420.295 6.04666 426.455 10.3C432.762 14.4067 437.455 20.0533 440.535 27.24C443.615 34.28 445.448 42.4933 446.035 51.88C446.768 61.12 447.135 70.8733 447.135 81.14C447.135 92.58 446.695 103.213 445.815 113.04C445.082 122.72 443.175 131.153 440.095 138.34C437.015 145.38 432.395 150.953 426.235 155.06C420.075 159.02 411.568 161 400.715 161C392.502 161 385.388 159.827 379.375 157.48C373.508 155.133 368.668 151.027 364.855 145.16C361.188 139.147 358.475 131.153 356.715 121.18C354.955 111.06 354.075 98.3733 354.075 83.12ZM318.215 83.12C318.215 94.56 320.488 105.193 325.035 115.02C329.582 124.847 335.595 133.427 343.075 140.76C350.702 147.947 359.502 153.667 369.475 157.92C379.448 162.027 389.862 164.08 400.715 164.08C411.715 164.08 422.128 161.953 431.955 157.7C441.928 153.3 450.655 147.36 458.135 139.88C465.762 132.4 471.775 123.747 476.175 113.92C480.722 103.947 482.995 93.46 482.995 82.46C482.995 69.8467 480.575 58.5533 475.735 48.58C471.042 38.46 464.808 29.88 457.035 22.84C449.408 15.8 440.608 10.3733 430.635 6.56C420.808 2.74666 410.835 0.83999 400.715 0.83999C391.328 0.83999 381.722 2.81999 371.895 6.77999C362.068 10.5933 353.195 16.0933 345.275 23.28C337.355 30.4667 330.828 39.12 325.695 49.24C320.708 59.36 318.215 70.6533 318.215 83.12Z" fill="black"/>
<path d="M639.417 49.24V4.36H635.677C634.943 6.11999 634.137 7.36666 633.257 8.09999C632.377 8.68666 630.91 8.97999 628.857 8.97999C626.95 8.97999 624.603 8.53999 621.817 7.65999C619.03 6.78 615.877 5.89999 612.357 5.01999C608.837 3.99333 605.023 3.03999 600.917 2.15999C596.81 1.27999 592.557 0.83999 588.157 0.83999C578.77 0.83999 569.163 2.81999 559.337 6.77999C549.657 10.5933 540.857 16.0933 532.937 23.28C525.017 30.4667 518.49 39.12 513.357 49.24C508.37 59.36 505.877 70.6533 505.877 83.12C505.877 94.56 508.15 105.193 512.697 115.02C517.243 124.847 523.257 133.427 530.737 140.76C538.363 147.947 547.163 153.667 557.137 157.92C567.11 162.027 577.45 164.08 588.157 164.08C594.903 164.08 600.623 163.347 605.317 161.88C610.157 160.56 614.41 159.093 618.077 157.48C621.743 155.867 625.117 154.4 628.197 153.08C631.423 151.613 634.797 150.88 638.317 150.88C640.077 150.88 641.617 151.32 642.937 152.2C644.403 152.933 645.283 154.18 645.577 155.94H649.537V105.56H663.837V102.48H595.857V105.56H618.517V113.92C618.517 120.667 618.223 126.9 617.637 132.62C617.05 138.34 615.657 143.327 613.457 147.58C611.403 151.687 608.397 154.987 604.437 157.48C600.477 159.827 595.123 161 588.377 161C580.163 161 573.05 159.827 567.037 157.48C561.17 154.987 556.33 150.953 552.517 145.38C548.85 139.807 546.137 132.473 544.377 123.38C542.617 114.287 541.737 103.067 541.737 89.72V70.58C541.737 62.3667 542.25 54.3 543.277 46.38C544.303 38.3133 546.43 31.2 549.657 25.04C553.03 18.7333 557.797 13.6733 563.957 9.85999C570.117 5.89999 578.257 3.91999 588.377 3.91999C601.137 3.77333 611.33 7.73333 618.957 15.8C626.583 23.72 632.303 34.8667 636.117 49.24H639.417Z" fill="white"/>
</svg>
