<svg width="491" height="129" viewBox="0 0 491 129" fill="none" xmlns="http://www.w3.org/2000/svg">
<path d="M120.512 82.0136H106.712V121.17H104.642C103.377 119.905 102.342 119.043 101.537 118.583C100.732 118.123 99.4672 117.893 97.7422 117.893C95.6723 117.893 93.5448 118.468 91.3599 119.618C89.2899 120.653 86.8175 121.86 83.9426 123.24C81.1826 124.62 77.9052 125.828 74.1103 126.862C70.3154 128.012 65.7155 128.587 60.3106 128.587C52.1459 128.587 44.901 127.265 38.5762 124.62C32.2514 121.86 26.1565 117.548 20.2917 111.683C14.5418 105.933 9.76943 99.1482 5.97452 91.3284C2.17962 83.5086 0.282165 74.7113 0.282165 64.9365C0.282165 58.3817 1.02965 52.5169 2.52461 47.342C4.01957 42.0521 5.80203 37.4522 7.87197 33.5423C10.0569 29.6324 12.2419 26.355 14.4268 23.7101C16.7267 21.0651 18.6242 18.9952 20.1192 17.5002C25.294 12.3254 31.2164 8.12798 37.8862 4.90806C44.556 1.68814 52.1459 0.0781824 60.6556 0.0781824C65.0255 0.0781824 68.5904 0.423173 71.3504 1.11315C74.2253 1.80313 76.6977 2.60811 78.7677 3.52809C80.8376 4.33307 82.6776 5.08056 84.2875 5.77054C86.0125 6.46052 87.91 6.80551 89.9799 6.80551C92.2798 6.80551 93.8898 6.51802 94.8098 5.94303C95.8447 5.25305 96.8222 4.33307 97.7422 3.18311H100.33V37.6822H98.4322C97.9722 34.6923 97.0522 31.1849 95.6723 27.16C94.4073 23.1351 92.3373 19.2827 89.4624 15.6028C86.7025 11.9229 82.9651 8.81796 78.2502 6.28803C73.6503 3.75809 67.728 2.49312 60.4831 2.49312C51.8584 2.49312 44.901 4.33307 39.6112 8.01298C34.4363 11.5779 30.3539 16.3503 27.364 22.3301C24.4891 28.195 22.5341 34.8648 21.4991 42.3396C20.5792 49.8144 20.1192 57.3467 20.1192 64.9365C20.1192 70.1114 20.3492 75.2863 20.8091 80.4612C21.2691 85.636 22.0166 90.5234 23.0516 95.1233C24.2016 99.7232 25.754 103.978 27.709 107.888C29.6639 111.798 32.1939 115.133 35.2988 117.893C38.7487 120.998 42.3136 123.183 45.9935 124.448C49.6734 125.598 54.4458 126.172 60.3106 126.172C63.8756 126.172 67.4405 125.598 71.0054 124.448C74.5703 123.183 77.7327 121.343 80.4926 118.928C83.3676 116.513 85.6675 113.465 87.3925 109.785C89.2324 105.991 90.1524 101.563 90.1524 96.5032V82.0136H67.9005V79.5987H120.512V82.0136ZM152.406 64.4191C152.406 74.7688 153.096 83.7961 154.476 91.5009C155.856 99.2057 158.156 105.646 161.376 110.82C164.595 115.995 168.735 119.848 173.795 122.378C178.855 124.908 185.122 126.172 192.597 126.172C199.957 126.172 206.167 124.908 211.227 122.378C216.402 119.848 220.599 115.995 223.819 110.82C227.039 105.646 229.339 99.2057 230.719 91.5009C232.099 83.7961 232.789 74.7688 232.789 64.4191C232.789 56.4843 232.271 48.8369 231.236 41.4771C230.201 34.0023 228.189 27.39 225.199 21.6401C222.324 15.7753 218.242 11.1179 212.952 7.66799C207.777 4.21808 200.992 2.49312 192.597 2.49312C184.202 2.49312 177.36 4.21808 172.07 7.66799C166.895 11.1179 162.813 15.7753 159.823 21.6401C156.948 27.39 154.993 34.0023 153.958 41.4771C152.923 48.8369 152.406 56.4843 152.406 64.4191ZM132.569 64.4191C132.569 55.2193 134.351 46.7095 137.916 38.8897C141.596 31.0699 146.253 24.2851 151.888 18.5352C157.638 12.7854 164.078 8.30047 171.208 5.08055C178.338 1.74564 185.467 0.0781824 192.597 0.0781824C200.187 0.0781824 207.547 1.74564 214.677 5.08055C221.922 8.30047 228.361 12.7854 233.996 18.5352C239.631 24.2851 244.116 31.0699 247.451 38.8897C250.901 46.7095 252.626 55.2193 252.626 64.4191C252.626 72.4689 251.073 80.3462 247.968 88.051C244.863 95.7558 240.609 102.598 235.204 108.578C229.799 114.558 223.417 119.388 216.057 123.068C208.812 126.747 200.992 128.587 192.597 128.587C183.973 128.587 175.98 126.805 168.62 123.24C161.261 119.675 154.878 114.96 149.473 109.095C144.184 103.116 140.044 96.2733 137.054 88.5684C134.064 80.7486 132.569 72.6988 132.569 64.4191ZM311.577 23.0201L292.603 73.2163H330.552L311.577 23.0201ZM255.516 123.585H270.696L317.27 0.0781824H321.41L368.329 123.585H383.681V126H330.552V123.585H349.699L331.587 75.6313H291.568L273.456 123.585H292.603V126H255.516V123.585ZM385.27 123.585H404.417V5.59804H385.27V3.18311H440.813V5.59804H421.666V123.585H452.37C462.49 123.585 470.425 120.423 476.175 114.098C481.925 107.773 486.122 99.1482 488.767 88.2235H490.664V126H385.27V123.585Z" fill="#898989" fill-opacity="0.06"/>
</svg>
