<svg width="1325" height="227" viewBox="0 0 1325 227" fill="none" xmlns="http://www.w3.org/2000/svg">
<path d="M182.55 69.6V8.4H177.45C176.45 10.8 175.35 12.5 174.15 13.5C172.95 14.3 170.95 14.7 168.15 14.7C165.55 14.7 162.35 14.1 158.55 12.9C154.75 11.7 150.45 10.5 145.65 9.29998C140.85 7.89999 135.65 6.59999 130.05 5.39998C124.45 4.19998 118.65 3.59999 112.65 3.59999C99.8496 3.59999 86.7496 6.29999 73.3496 11.7C60.1496 16.9 48.1496 24.4 37.3496 34.2C26.5496 44 17.6496 55.8 10.6496 69.6C3.84961 83.4 0.44961 98.8 0.44961 115.8C0.44961 131.4 3.54961 145.9 9.74961 159.3C15.9496 172.7 24.1496 184.4 34.3496 194.4C44.7496 204.2 56.7496 212 70.3496 217.8C83.9496 223.4 98.0496 226.2 112.65 226.2C121.85 226.2 129.65 225.2 136.05 223.2C142.65 221.4 148.45 219.4 153.45 217.2C158.45 215 163.05 213 167.25 211.2C171.65 209.2 176.25 208.2 181.05 208.2C183.45 208.2 185.55 208.8 187.35 210C189.35 211 190.55 212.7 190.95 215.1H196.35V146.4H215.85V142.2H123.15V146.4H154.05V157.8C154.05 167 153.65 175.5 152.85 183.3C152.05 191.1 150.15 197.9 147.15 203.7C144.35 209.3 140.25 213.8 134.85 217.2C129.45 220.4 122.15 222 112.95 222C101.75 222 92.0496 220.4 83.8496 217.2C75.8496 213.8 69.2496 208.3 64.0496 200.7C59.0496 193.1 55.3496 183.1 52.9496 170.7C50.5496 158.3 49.3496 143 49.3496 124.8V98.7C49.3496 87.5 50.0496 76.5 51.4496 65.7C52.8496 54.7 55.7496 45 60.1496 36.6C64.7496 28 71.2496 21.1 79.6496 15.9C88.0496 10.5 99.1496 7.79999 112.95 7.79999C130.35 7.59999 144.25 13 154.65 24C165.05 34.8 172.85 50 178.05 69.6H182.55ZM301.446 105.3V12.6C303.646 12.4 305.846 12.2 308.046 12C310.246 11.8 312.446 11.7 314.646 11.7C322.246 11.7 328.446 12.7 333.246 14.7C338.246 16.7 342.146 19.8 344.946 24C347.746 28 349.746 33.2 350.946 39.6C352.146 45.8 352.746 53.3 352.746 62.1C352.746 67.5 352.346 72.8 351.546 78C350.946 83.2 349.346 87.9 346.746 92.1C344.146 96.1 340.246 99.3 335.046 101.7C329.846 104.1 322.746 105.3 313.746 105.3H301.446ZM257.946 12.6V217.8H230.346V222H329.046V217.8H301.446V109.5H321.246C330.646 109.5 337.946 111.3 343.146 114.9C348.346 118.5 352.246 123.3 354.846 129.3C357.446 135.3 359.046 142.2 359.646 150C360.446 157.6 361.046 165.5 361.446 173.7C361.646 179.1 362.046 184.9 362.646 191.1C363.446 197.1 365.346 202.7 368.346 207.9C371.346 213.1 375.946 217.5 382.146 221.1C388.346 224.5 396.946 226.2 407.946 226.2C413.346 226.2 417.846 225.8 421.446 225C425.046 224.4 428.046 223.5 430.446 222.3C433.046 221.1 435.246 219.7 437.046 218.1C439.046 216.3 441.046 214.4 443.046 212.4L440.046 209.7C438.046 211.7 435.746 213.9 433.146 216.3C430.546 218.5 427.246 219.6 423.246 219.6C419.646 219.6 416.846 218.9 414.846 217.5C413.046 216.1 411.546 213.3 410.346 209.1C409.346 204.9 408.546 199 407.946 191.4C407.346 183.8 406.546 173.7 405.546 161.1C404.746 150.3 402.646 141.7 399.246 135.3C396.046 128.9 391.646 123.9 386.046 120.3C380.446 116.7 373.746 114 365.946 112.2C358.346 110.4 349.646 108.6 339.846 106.8V105.3C346.646 104.7 353.546 103.5 360.546 101.7C367.546 99.7 373.846 96.9 379.446 93.3C385.246 89.7 389.946 85.1 393.546 79.5C397.146 73.7 398.946 66.8 398.946 58.8C398.946 48.8 396.546 40.5 391.746 33.9C387.146 27.3 381.246 22.1 374.046 18.3C366.846 14.3 358.846 11.5 350.046 9.89999C341.446 8.29999 333.246 7.49999 325.446 7.49999C317.046 7.49999 308.746 7.69999 300.546 8.09998C292.346 8.29999 284.046 8.4 275.646 8.4H230.346V12.6H257.946ZM527.25 51.3L562.65 133.2H493.65L527.25 51.3ZM428.85 217.8V222H485.55V217.8H458.85L492.15 137.4H564.15L598.95 217.8H571.05V222H671.85V217.8H646.05L551.55 -2.86102e-06H543.45L454.05 217.8H428.85ZM745.286 116.1V12.6C746.886 12.4 748.686 12.2 750.686 12C752.686 11.8 754.786 11.7 756.986 11.7C774.386 11.7 786.386 16.3 792.986 25.5C799.586 34.7 802.886 48 802.886 65.4C802.886 83.8 799.086 96.9 791.486 104.7C783.886 112.3 771.586 116.1 754.586 116.1H745.286ZM745.286 217.8V120.3H757.586C773.586 120.3 787.486 118.8 799.286 115.8C811.086 112.8 820.886 108.8 828.686 103.8C836.486 98.6 842.286 92.6 846.086 85.8C849.886 78.8 851.786 71.4 851.786 63.6C851.786 52 848.786 42.6 842.786 35.4C836.986 28 829.686 22.3 820.886 18.3C812.086 14.1 802.486 11.3 792.086 9.89999C781.686 8.29999 771.986 7.49999 762.986 7.49999C752.786 7.49999 742.586 7.69999 732.386 8.09998C722.186 8.29999 711.986 8.4 701.786 8.4H674.186V12.6H701.786V217.8H674.186V222H772.886V217.8H745.286ZM869.018 8.4V12.6H896.618V217.8H869.018V222H967.718V217.8H940.118V115.2H1026.82V217.8H999.218V222H1097.92V217.8H1070.32V12.6H1097.92V8.4H999.218V12.6H1026.82V111H940.118V12.6H967.718V8.4H869.018ZM1103.92 8.4V12.6H1127.32L1196.92 134.1V217.8H1169.32V222H1268.32V217.8H1240.42V122.7L1298.32 12.6H1324.42V8.4H1267.12V12.6H1293.22L1238.02 117.3L1176.82 12.6H1200.52V8.4H1103.92Z" fill="black" fill-opacity="0.83"/>
</svg>
