<svg width="1130" height="224" viewBox="0 0 1130 224" fill="none" xmlns="http://www.w3.org/2000/svg">
<path d="M67.4191 113.1V9.6C69.0191 9.39999 70.8191 9.19998 72.8191 8.99999C74.8191 8.79999 76.9191 8.69999 79.1191 8.69999C96.5191 8.69999 108.519 13.3 115.119 22.5C121.719 31.7 125.019 45 125.019 62.4C125.019 80.8 121.219 93.9 113.619 101.7C106.019 109.3 93.7191 113.1 76.7191 113.1H67.4191ZM67.4191 214.8V117.3H79.7191C95.7191 117.3 109.619 115.8 121.419 112.8C133.219 109.8 143.019 105.8 150.819 100.8C158.619 95.6 164.419 89.6 168.219 82.8C172.019 75.8 173.919 68.4 173.919 60.6C173.919 49 170.919 39.6 164.919 32.4C159.119 25 151.819 19.3 143.019 15.3C134.219 11.1 124.619 8.29999 114.219 6.89999C103.819 5.29999 94.1191 4.49999 85.1191 4.49999C74.9191 4.49999 64.7191 4.69999 54.5191 5.09998C44.3191 5.29999 34.1191 5.4 23.9191 5.4H-3.68086V9.6H23.9191V214.8H-3.68086V219H95.0191V214.8H67.4191ZM191.15 5.4V9.6H218.75V214.8H191.15V219H289.85V214.8H262.25V112.2H348.95V214.8H321.35V219H420.05V214.8H392.45V9.6H420.05V5.4H321.35V9.6H348.95V108H262.25V9.6H289.85V5.4H191.15ZM492.053 112.8C492.053 97 492.753 82.5 494.153 69.3C495.553 56.1 498.453 44.7 502.853 35.1C507.253 25.5 513.653 18.1 522.053 12.9C530.453 7.49999 541.653 4.79999 555.653 4.79999C570.653 4.79999 582.353 7.69998 590.753 13.5C599.353 19.1 605.753 26.8 609.953 36.6C614.153 46.2 616.653 57.4 617.453 70.2C618.453 82.8 618.953 96.1 618.953 110.1C618.953 125.7 618.353 140.2 617.153 153.6C616.153 166.8 613.553 178.3 609.353 188.1C605.153 197.7 598.853 205.3 590.453 210.9C582.053 216.3 570.453 219 555.653 219C544.453 219 534.753 217.4 526.553 214.2C518.553 211 511.953 205.4 506.753 197.4C501.753 189.2 498.053 178.3 495.653 164.7C493.253 150.9 492.053 133.6 492.053 112.8ZM443.153 112.8C443.153 128.4 446.253 142.9 452.453 156.3C458.653 169.7 466.853 181.4 477.053 191.4C487.453 201.2 499.453 209 513.053 214.8C526.653 220.4 540.853 223.2 555.653 223.2C570.653 223.2 584.853 220.3 598.253 214.5C611.853 208.5 623.753 200.4 633.953 190.2C644.353 180 652.553 168.2 658.553 154.8C664.753 141.2 667.853 126.9 667.853 111.9C667.853 94.7 664.553 79.3 657.953 65.7C651.553 51.9 643.053 40.2 632.453 30.6C622.053 21 610.053 13.6 596.453 8.39999C583.053 3.19999 569.453 0.599987 555.653 0.599987C542.853 0.599987 529.753 3.29999 516.353 8.69999C502.953 13.9 490.853 21.4 480.053 31.2C469.253 41 460.353 52.8 453.353 66.6C446.553 80.4 443.153 95.8 443.153 112.8ZM764.455 9.6V214.8H736.855V219H835.555V214.8H807.955V9.6H818.755C826.155 9.6 832.755 10.4 838.555 12C844.355 13.4 849.555 16 854.155 19.8C858.755 23.4 862.855 28.5 866.455 35.1C870.055 41.7 873.355 50.1 876.355 60.3H880.255V5.4H692.155V60.3H696.055C699.055 50.1 702.355 41.7 705.955 35.1C709.555 28.5 713.655 23.4 718.255 19.8C722.855 16 728.055 13.4 733.855 12C739.655 10.4 746.255 9.6 753.655 9.6H764.455ZM953.479 112.8C953.479 97 954.179 82.5 955.579 69.3C956.979 56.1 959.879 44.7 964.279 35.1C968.679 25.5 975.079 18.1 983.479 12.9C991.879 7.49999 1003.08 4.79999 1017.08 4.79999C1032.08 4.79999 1043.78 7.69998 1052.18 13.5C1060.78 19.1 1067.18 26.8 1071.38 36.6C1075.58 46.2 1078.08 57.4 1078.88 70.2C1079.88 82.8 1080.38 96.1 1080.38 110.1C1080.38 125.7 1079.78 140.2 1078.58 153.6C1077.58 166.8 1074.98 178.3 1070.78 188.1C1066.58 197.7 1060.28 205.3 1051.88 210.9C1043.48 216.3 1031.88 219 1017.08 219C1005.88 219 996.179 217.4 987.979 214.2C979.979 211 973.379 205.4 968.179 197.4C963.179 189.2 959.479 178.3 957.079 164.7C954.679 150.9 953.479 133.6 953.479 112.8ZM904.579 112.8C904.579 128.4 907.679 142.9 913.879 156.3C920.079 169.7 928.279 181.4 938.479 191.4C948.879 201.2 960.879 209 974.479 214.8C988.079 220.4 1002.28 223.2 1017.08 223.2C1032.08 223.2 1046.28 220.3 1059.68 214.5C1073.28 208.5 1085.18 200.4 1095.38 190.2C1105.78 180 1113.98 168.2 1119.98 154.8C1126.18 141.2 1129.28 126.9 1129.28 111.9C1129.28 94.7 1125.98 79.3 1119.38 65.7C1112.98 51.9 1104.48 40.2 1093.88 30.6C1083.48 21 1071.48 13.6 1057.88 8.39999C1044.48 3.19999 1030.88 0.599987 1017.08 0.599987C1004.28 0.599987 991.179 3.29999 977.779 8.69999C964.379 13.9 952.279 21.4 941.479 31.2C930.679 41 921.779 52.8 914.779 66.6C907.979 80.4 904.579 95.8 904.579 112.8Z" fill="black" fill-opacity="0.83"/>
</svg>
