<svg width="1390" height="165" viewBox="0 0 1390 165" fill="none" xmlns="http://www.w3.org/2000/svg">
<path d="M52.62 83.34V7.44C53.7933 7.29332 55.1133 7.14665 56.58 6.99999C58.0467 6.85332 59.5867 6.77999 61.2 6.77999C73.96 6.77999 82.76 10.1533 87.6 16.9C92.44 23.6467 94.86 33.4 94.86 46.16C94.86 59.6533 92.0733 69.26 86.5 74.98C80.9267 80.5533 71.9067 83.34 59.44 83.34H52.62ZM52.62 157.92V86.42H61.64C73.3733 86.42 83.5667 85.32 92.22 83.12C100.873 80.92 108.06 77.9867 113.78 74.32C119.5 70.5067 123.753 66.1067 126.54 61.12C129.327 55.9867 130.72 50.56 130.72 44.84C130.72 36.3333 128.52 29.44 124.12 24.16C119.867 18.7333 114.513 14.5533 108.06 11.62C101.607 8.53999 94.5667 6.48666 86.94 5.46C79.3133 4.28666 72.2 3.69999 65.6 3.69999C58.12 3.69999 50.64 3.84666 43.16 4.13999C35.68 4.28666 28.2 4.36 20.72 4.36H0.48V7.44H20.72V157.92H0.48V161H72.86V157.92H52.62ZM180.756 83.12C180.756 71.5333 181.27 60.9 182.296 51.22C183.323 41.54 185.45 33.18 188.676 26.14C191.903 19.1 196.596 13.6733 202.756 9.85999C208.916 5.89999 217.13 3.91999 227.396 3.91999C238.396 3.91999 246.976 6.04666 253.136 10.3C259.443 14.4067 264.136 20.0533 267.216 27.24C270.296 34.28 272.13 42.4933 272.716 51.88C273.45 61.12 273.816 70.8733 273.816 81.14C273.816 92.58 273.376 103.213 272.496 113.04C271.763 122.72 269.856 131.153 266.776 138.34C263.696 145.38 259.076 150.953 252.916 155.06C246.756 159.02 238.25 161 227.396 161C219.183 161 212.07 159.827 206.056 157.48C200.19 155.133 195.35 151.027 191.536 145.16C187.87 139.147 185.156 131.153 183.396 121.18C181.636 111.06 180.756 98.3733 180.756 83.12ZM144.896 83.12C144.896 94.56 147.17 105.193 151.716 115.02C156.263 124.847 162.276 133.427 169.756 140.76C177.383 147.947 186.183 153.667 196.156 157.92C206.13 162.027 216.543 164.08 227.396 164.08C238.396 164.08 248.81 161.953 258.636 157.7C268.61 153.3 277.336 147.36 284.816 139.88C292.443 132.4 298.456 123.747 302.856 113.92C307.403 103.947 309.676 93.46 309.676 82.46C309.676 69.8467 307.256 58.5533 302.416 48.58C297.723 38.46 291.49 29.88 283.716 22.84C276.09 15.8 267.29 10.3733 257.316 6.56C247.49 2.74666 237.516 0.83999 227.396 0.83999C218.01 0.83999 208.403 2.81999 198.576 6.77999C188.75 10.5933 179.876 16.0933 171.956 23.28C164.036 30.4667 157.51 39.12 152.376 49.24C147.39 59.36 144.896 70.6533 144.896 83.12ZM378.758 75.42V7.44C380.371 7.29332 381.985 7.14665 383.598 6.99999C385.211 6.85332 386.825 6.77999 388.438 6.77999C394.011 6.77999 398.558 7.51332 402.078 8.97999C405.745 10.4467 408.605 12.72 410.658 15.8C412.711 18.7333 414.178 22.5467 415.058 27.24C415.938 31.7867 416.378 37.2867 416.378 43.74C416.378 47.7 416.085 51.5867 415.498 55.4C415.058 59.2133 413.885 62.66 411.978 65.74C410.071 68.6733 407.211 71.02 403.398 72.78C399.585 74.54 394.378 75.42 387.778 75.42H378.758ZM346.858 7.44V157.92H326.618V161H398.998V157.92H378.758V78.5H393.278C400.171 78.5 405.525 79.82 409.338 82.46C413.151 85.1 416.011 88.62 417.918 93.02C419.825 97.42 420.998 102.48 421.438 108.2C422.025 113.773 422.465 119.567 422.758 125.58C422.905 129.54 423.198 133.793 423.638 138.34C424.225 142.74 425.618 146.847 427.818 150.66C430.018 154.473 433.391 157.7 437.938 160.34C442.485 162.833 448.791 164.08 456.858 164.08C460.818 164.08 464.118 163.787 466.758 163.2C469.398 162.76 471.598 162.1 473.358 161.22C475.265 160.34 476.878 159.313 478.198 158.14C479.665 156.82 481.131 155.427 482.598 153.96L480.398 151.98C478.931 153.447 477.245 155.06 475.338 156.82C473.431 158.433 471.011 159.24 468.078 159.24C465.438 159.24 463.385 158.727 461.918 157.7C460.598 156.673 459.498 154.62 458.618 151.54C457.885 148.46 457.298 144.133 456.858 138.56C456.418 132.987 455.831 125.58 455.098 116.34C454.511 108.42 452.971 102.113 450.478 97.42C448.131 92.7267 444.905 89.06 440.798 86.42C436.691 83.78 431.778 81.8 426.058 80.48C420.485 79.16 414.105 77.84 406.918 76.52V75.42C411.905 74.98 416.965 74.1 422.098 72.78C427.231 71.3133 431.851 69.26 435.958 66.62C440.211 63.98 443.658 60.6067 446.298 56.5C448.938 52.2467 450.258 47.1867 450.258 41.32C450.258 33.9867 448.498 27.9 444.978 23.06C441.605 18.22 437.278 14.4067 431.998 11.62C426.718 8.68666 420.851 6.63332 414.398 5.46C408.091 4.28666 402.078 3.69999 396.358 3.69999C390.198 3.69999 384.111 3.84666 378.098 4.13999C372.085 4.28666 365.998 4.36 359.838 4.36H326.618V7.44H346.858ZM539.288 7.44V157.92H519.048V161H591.428V157.92H571.188V7.44H579.108C584.534 7.44 589.374 8.02666 593.628 9.19999C597.881 10.2267 601.694 12.1333 605.068 14.92C608.441 17.56 611.448 21.3 614.088 26.14C616.728 30.98 619.148 37.14 621.348 44.62H624.208V4.36H486.268V44.62H489.128C491.328 37.14 493.748 30.98 496.388 26.14C499.028 21.3 502.034 17.56 505.408 14.92C508.781 12.1333 512.594 10.2267 516.848 9.19999C521.101 8.02666 525.941 7.44 531.368 7.44H539.288ZM661.185 7.44V157.92H640.945V161H713.545V157.92H693.085V81.36H707.825C712.958 81.36 717.211 82.24 720.585 84C724.105 85.76 727.038 88.18 729.385 91.26C731.731 94.1933 733.565 97.64 734.885 101.6C736.351 105.56 737.598 109.667 738.625 113.92H741.485V45.5H738.625C737.598 50.4867 736.278 55.0333 734.665 59.14C733.051 63.1 730.998 66.5467 728.505 69.48C726.011 72.2667 722.858 74.4667 719.045 76.08C715.378 77.5467 710.831 78.28 705.405 78.28H693.085V7.44H726.305C732.171 7.44 737.231 8.24666 741.485 9.85999C745.885 11.4733 749.698 13.82 752.925 16.9C756.151 19.8333 758.938 23.4267 761.285 27.68C763.778 31.9333 766.051 36.7 768.105 41.98H770.965V4.36H640.945V7.44H661.185ZM828.51 83.12C828.51 71.5333 829.023 60.9 830.05 51.22C831.077 41.54 833.203 33.18 836.43 26.14C839.657 19.1 844.35 13.6733 850.51 9.85999C856.67 5.89999 864.883 3.91999 875.15 3.91999C886.15 3.91999 894.73 6.04666 900.89 10.3C907.197 14.4067 911.89 20.0533 914.97 27.24C918.05 34.28 919.883 42.4933 920.47 51.88C921.203 61.12 921.57 70.8733 921.57 81.14C921.57 92.58 921.13 103.213 920.25 113.04C919.517 122.72 917.61 131.153 914.53 138.34C911.45 145.38 906.83 150.953 900.67 155.06C894.51 159.02 886.003 161 875.15 161C866.937 161 859.823 159.827 853.81 157.48C847.943 155.133 843.103 151.027 839.29 145.16C835.623 139.147 832.91 131.153 831.15 121.18C829.39 111.06 828.51 98.3733 828.51 83.12ZM792.65 83.12C792.65 94.56 794.923 105.193 799.47 115.02C804.017 124.847 810.03 133.427 817.51 140.76C825.137 147.947 833.937 153.667 843.91 157.92C853.883 162.027 864.297 164.08 875.15 164.08C886.15 164.08 896.563 161.953 906.39 157.7C916.363 153.3 925.09 147.36 932.57 139.88C940.197 132.4 946.21 123.747 950.61 113.92C955.157 103.947 957.43 93.46 957.43 82.46C957.43 69.8467 955.01 58.5533 950.17 48.58C945.477 38.46 939.243 29.88 931.47 22.84C923.843 15.8 915.043 10.3733 905.07 6.56C895.243 2.74666 885.27 0.83999 875.15 0.83999C865.763 0.83999 856.157 2.81999 846.33 6.77999C836.503 10.5933 827.63 16.0933 819.71 23.28C811.79 30.4667 805.263 39.12 800.13 49.24C795.143 59.36 792.65 70.6533 792.65 83.12ZM976.792 4.36V7.44H997.032V157.92H976.792V161H1116.27V111.28H1113.41C1111.51 119.787 1108.79 127.047 1105.27 133.06C1101.9 138.927 1098.01 143.767 1093.61 147.58C1089.36 151.247 1084.74 153.887 1079.75 155.5C1074.91 157.113 1070.07 157.92 1065.23 157.92H1028.93V7.44H1049.17V4.36H976.792ZM1134.02 4.36V7.44H1154.26V157.92H1134.02V161H1206.4V157.92H1186.16V7.44H1206.4V4.36H1134.02ZM1260.13 83.12C1260.13 71.5333 1260.64 60.9 1261.67 51.22C1262.7 41.54 1264.82 33.18 1268.05 26.14C1271.28 19.1 1275.97 13.6733 1282.13 9.85999C1288.29 5.89999 1296.5 3.91999 1306.77 3.91999C1317.77 3.91999 1326.35 6.04666 1332.51 10.3C1338.82 14.4067 1343.51 20.0533 1346.59 27.24C1349.67 34.28 1351.5 42.4933 1352.09 51.88C1352.82 61.12 1353.19 70.8733 1353.19 81.14C1353.19 92.58 1352.75 103.213 1351.87 113.04C1351.14 122.72 1349.23 131.153 1346.15 138.34C1343.07 145.38 1338.45 150.953 1332.29 155.06C1326.13 159.02 1317.62 161 1306.77 161C1298.56 161 1291.44 159.827 1285.43 157.48C1279.56 155.133 1274.72 151.027 1270.91 145.16C1267.24 139.147 1264.53 131.153 1262.77 121.18C1261.01 111.06 1260.13 98.3733 1260.13 83.12ZM1224.27 83.12C1224.27 94.56 1226.54 105.193 1231.09 115.02C1235.64 124.847 1241.65 133.427 1249.13 140.76C1256.76 147.947 1265.56 153.667 1275.53 157.92C1285.5 162.027 1295.92 164.08 1306.77 164.08C1317.77 164.08 1328.18 161.953 1338.01 157.7C1347.98 153.3 1356.71 147.36 1364.19 139.88C1371.82 132.4 1377.83 123.747 1382.23 113.92C1386.78 103.947 1389.05 93.46 1389.05 82.46C1389.05 69.8467 1386.63 58.5533 1381.79 48.58C1377.1 38.46 1370.86 29.88 1363.09 22.84C1355.46 15.8 1346.66 10.3733 1336.69 6.56C1326.86 2.74666 1316.89 0.83999 1306.77 0.83999C1297.38 0.83999 1287.78 2.81999 1277.95 6.77999C1268.12 10.5933 1259.25 16.0933 1251.33 23.28C1243.41 30.4667 1236.88 39.12 1231.75 49.24C1226.76 59.36 1224.27 70.6533 1224.27 83.12Z" fill="black"/>
</svg>
