<svg width="749" height="129" viewBox="0 0 749 129" fill="none" xmlns="http://www.w3.org/2000/svg">
<path d="M0.937173 88.9134H2.83463C4.09959 95.1233 5.70955 100.356 7.6645 104.611C9.73445 108.865 11.9769 112.373 14.3918 115.133C16.8068 117.893 19.3367 120.02 21.9816 121.515C24.6266 123.01 27.2715 124.103 29.9164 124.793C32.6764 125.483 35.2638 125.885 37.6787 126C40.2087 126.115 42.5661 126.172 44.7511 126.172C50.8459 126.172 55.8483 125.253 59.7582 123.413C63.6681 121.573 66.773 119.273 69.073 116.513C71.3729 113.638 72.9829 110.59 73.9028 107.37C74.8228 104.036 75.2828 100.988 75.2828 98.2282C75.2828 94.2033 74.5353 90.7534 73.0404 87.8785C71.5454 85.0035 69.6479 82.5886 67.348 80.6336C65.0481 78.5637 62.5181 76.8962 59.7582 75.6313C57.1133 74.3663 54.5833 73.3888 52.1684 72.6988L32.3314 66.6615C23.0166 63.7866 15.9443 59.9917 11.1144 55.2768C6.39953 50.5619 4.04209 44.2371 4.04209 36.3023C4.04209 31.1274 4.96207 26.355 6.80203 21.9851C8.64198 17.5002 11.2294 13.6478 14.5643 10.4279C17.8992 7.208 21.8666 4.67807 26.4665 2.83811C31.1814 0.998158 36.2988 0.0781824 41.8186 0.0781824C45.8435 0.0781824 49.1785 0.423173 51.8234 1.11315C54.5833 1.80313 56.9408 2.60811 58.8957 3.52809C60.8507 4.33307 62.5756 5.08056 64.0706 5.77054C65.6805 6.46052 67.2905 6.80551 68.9005 6.80551C70.3954 6.80551 71.3729 6.63301 71.8329 6.28803C72.4079 5.82804 73.1553 4.79306 74.0753 3.18311H76.4903V34.4048H74.4203C73.7303 30.2649 72.5229 26.2975 70.7979 22.5026C69.1879 18.5927 67.0605 15.2003 64.4156 12.3254C61.7706 9.33544 58.5507 6.978 54.7558 5.25305C51.0759 3.4131 46.7635 2.49312 41.8186 2.49312C39.0587 2.49312 36.0113 2.89561 32.6764 3.70059C29.3415 4.39057 26.2365 5.65554 23.3616 7.49549C20.4867 9.33545 18.0717 11.7504 16.1168 14.7403C14.2768 17.7302 13.3569 21.5251 13.3569 26.125C13.3569 29.8049 14.1043 32.9673 15.5993 35.6123C17.0943 38.1422 18.9917 40.3272 21.2917 42.1671C23.7066 43.8921 26.3515 45.387 29.2265 46.652C32.2164 47.802 35.2063 48.8369 38.1962 49.7569L59.0682 56.3118C61.2532 57.0017 64.0131 57.9217 67.348 59.0717C70.6829 60.2217 73.9028 61.9466 77.0078 64.2466C80.2277 66.5465 82.9301 69.5939 85.115 73.3888C87.415 77.1837 88.565 82.0136 88.565 87.8785C88.565 93.2833 87.53 98.4582 85.46 103.403C83.5051 108.233 80.6302 112.545 76.8353 116.34C73.0404 120.02 68.4405 123.01 63.0356 125.31C57.6307 127.495 51.5359 128.587 44.7511 128.587C42.3361 128.587 40.2087 128.53 38.3687 128.415C36.5288 128.415 34.8038 128.3 33.1939 128.07C31.5839 127.84 29.9739 127.552 28.364 127.207C26.754 126.977 24.9716 126.575 23.0166 126C20.7167 125.31 18.2442 124.505 15.5993 123.585C12.9544 122.665 10.6544 122.205 8.69948 122.205C6.97452 122.205 5.76705 122.55 5.07707 123.24C4.50208 123.93 3.9846 124.85 3.52461 126H0.937173V88.9134ZM104.778 123.585H123.925V5.59804H104.778V3.18311H203.446V33.0248H201.548C200.053 28.54 198.443 24.6301 196.718 21.2951C194.993 17.8452 192.923 14.9703 190.509 12.6704C188.094 10.2554 185.219 8.47297 181.884 7.323C178.549 6.17303 174.524 5.59804 169.809 5.59804H141.175V58.8992H152.387C156.182 58.8992 159.402 58.5542 162.047 57.8642C164.692 57.1742 166.934 55.9093 168.774 54.0693C170.729 52.1144 172.339 49.5269 173.604 46.307C174.984 42.9721 176.306 38.7172 177.571 33.5423H179.469V87.1885H177.571C176.766 83.8536 175.904 80.6336 174.984 77.5287C174.179 74.4238 172.971 71.6639 171.362 69.2489C169.867 66.834 167.797 64.9365 165.152 63.5566C162.622 62.0616 159.287 61.3141 155.147 61.3141H141.175V123.585H173.776C180.101 123.585 185.334 122.263 189.474 119.618C193.728 116.858 197.178 113.638 199.823 109.958C202.468 106.163 204.423 102.253 205.688 98.2282C206.953 94.2033 207.758 90.8684 208.103 88.2235H210.001V126H104.778V123.585ZM259.179 58.8992H275.049C278.269 58.8992 281.201 58.4967 283.846 57.6917C286.491 56.8867 288.734 55.5068 290.574 53.5518C292.528 51.4819 294.023 48.722 295.058 45.272C296.093 41.8221 296.611 37.4522 296.611 32.1624C296.611 26.1825 295.806 21.4101 294.196 17.8452C292.701 14.1653 290.689 11.4054 288.159 9.56544C285.744 7.72549 282.984 6.51802 279.879 5.94303C276.889 5.36805 273.899 5.08055 270.909 5.08055C268.839 5.08055 266.712 5.13805 264.527 5.25305C262.457 5.25305 260.674 5.36805 259.179 5.59804V58.8992ZM222.783 123.585H241.93V5.59804H222.783V3.18311H255.557C256.937 3.18311 258.317 3.18311 259.697 3.18311C261.077 3.0681 262.457 2.9531 263.837 2.83811C265.217 2.83811 266.597 2.83811 267.977 2.83811C269.357 2.72311 270.737 2.66561 272.116 2.66561C278.901 2.66561 284.881 3.06811 290.056 3.87309C295.231 4.56307 300.061 6.69052 304.546 10.2554C308.571 13.3603 311.388 16.8678 312.998 20.7777C314.723 24.6876 315.585 28.3675 315.585 31.8174C315.585 33.5423 315.24 35.7848 314.55 38.5447C313.975 41.1896 312.595 43.9496 310.411 46.8245C308.341 49.5844 305.293 52.1719 301.268 54.5868C297.243 56.8867 291.896 58.4392 285.226 59.2442V59.5892C287.066 59.8192 289.539 60.2792 292.643 60.9691C295.863 61.5441 299.083 62.5791 302.303 64.0741C305.638 65.569 308.686 67.5815 311.445 70.1114C314.205 72.5264 316.16 75.6888 317.31 79.5987C318 81.8986 318.46 84.5435 318.69 87.5335C319.035 90.4084 319.265 93.3983 319.38 96.5032C319.61 99.6082 319.783 102.598 319.898 105.473C320.128 108.348 320.473 110.763 320.933 112.718C321.623 115.708 322.715 118.41 324.21 120.825C325.705 123.24 328.12 124.448 331.455 124.448C332.95 124.448 334.502 124.16 336.112 123.585C337.722 123.01 339.16 122.09 340.425 120.825L341.977 122.723C341.402 123.183 340.712 123.7 339.907 124.275C339.217 124.735 338.297 125.195 337.147 125.655C335.997 126.115 334.56 126.46 332.835 126.69C331.225 127.035 329.213 127.207 326.798 127.207C322.198 127.207 318.345 126.632 315.24 125.483C312.25 124.333 309.836 122.665 307.996 120.48C306.156 118.18 304.776 115.42 303.856 112.2C303.051 108.865 302.476 105.013 302.131 100.643L300.923 84.946C300.463 79.1962 299.313 74.7113 297.473 71.4914C295.633 68.2715 293.448 65.914 290.919 64.4191C288.504 62.9241 285.974 62.0616 283.329 61.8316C280.684 61.4866 278.384 61.3141 276.429 61.3141H259.179V123.585H278.326V126H222.783V123.585ZM330.51 3.18311H383.811V5.59804H364.664L402.958 105.646L440.735 5.59804H421.933V3.18311H459.192V5.59804H443.667L397.266 128.587H392.954L346.035 5.59804H330.51V3.18311ZM459.309 123.585H478.456V5.59804H459.309V3.18311H514.853V5.59804H495.706V123.585H514.853V126H459.309V123.585ZM632.787 126H630.2C629.395 125.08 628.475 124.275 627.44 123.585C626.405 122.78 624.795 122.378 622.61 122.378C620.885 122.378 618.988 122.723 616.918 123.413C614.963 123.988 612.663 124.678 610.018 125.483C607.488 126.287 604.613 126.977 601.393 127.552C598.173 128.242 594.608 128.587 590.698 128.587C583.454 128.587 576.381 127.265 569.481 124.62C562.697 121.975 556.257 117.663 550.162 111.683C544.527 106.048 539.812 99.3782 536.017 91.6734C532.222 83.9686 530.325 75.0563 530.325 64.9365C530.325 56.3118 531.877 48.0895 534.982 40.2697C538.087 32.4499 542.4 25.55 547.92 19.5702C553.439 13.5903 559.937 8.87546 567.412 5.42554C574.886 1.86063 583.051 0.0781824 591.906 0.0781824C595.471 0.0781824 598.633 0.423173 601.393 1.11315C604.153 1.80313 606.626 2.60811 608.81 3.52809C610.995 4.33307 613.008 5.08056 614.848 5.77054C616.688 6.46052 618.47 6.80551 620.195 6.80551C622.495 6.80551 624.105 6.46052 625.025 5.77054C626.06 4.96555 626.98 4.10308 627.785 3.18311H630.372V37.6822H628.475C627.44 33.3123 626.118 29 624.508 24.7451C622.898 20.4902 620.655 16.7528 617.78 13.5328C614.905 10.1979 611.225 7.55299 606.741 5.59804C602.371 3.5281 596.908 2.49312 590.353 2.49312C584.259 2.49312 579.026 3.47059 574.656 5.42554C570.286 7.2655 566.607 9.79543 563.617 13.0154C560.627 16.1203 558.212 19.8002 556.372 24.0551C554.647 28.195 553.324 32.6224 552.404 37.3372C551.484 41.9371 550.852 46.652 550.507 51.4819C550.277 56.1968 550.162 60.6816 550.162 64.9365C550.162 77.0112 551.139 87.016 553.094 94.9508C555.049 102.886 557.752 109.153 561.202 113.753C564.767 118.353 569.021 121.573 573.966 123.413C578.911 125.253 584.374 126.172 590.353 126.172C598.058 126.172 604.268 125.08 608.983 122.895C613.698 120.71 617.493 117.893 620.368 114.443C623.243 110.878 625.428 106.91 626.923 102.541C628.417 98.0557 629.74 93.6283 630.89 89.2584H632.787V126ZM643.254 123.585H662.401V5.59804H643.254V3.18311H741.922V33.0248H740.024C738.529 28.54 736.919 24.6301 735.195 21.2951C733.47 17.8452 731.4 14.9703 728.985 12.6704C726.57 10.2554 723.695 8.47297 720.36 7.323C717.025 6.17303 713 5.59804 708.285 5.59804H679.651V58.8992H690.863C694.658 58.8992 697.878 58.5542 700.523 57.8642C703.168 57.1742 705.41 55.9093 707.25 54.0693C709.205 52.1144 710.815 49.5269 712.08 46.307C713.46 42.9721 714.783 38.7172 716.047 33.5423H717.945V87.1885H716.047C715.243 83.8536 714.38 80.6336 713.46 77.5287C712.655 74.4238 711.448 71.6639 709.838 69.2489C708.343 66.834 706.273 64.9365 703.628 63.5566C701.098 62.0616 697.763 61.3141 693.623 61.3141H679.651V123.585H712.253C718.577 123.585 723.81 122.263 727.95 119.618C732.205 116.858 735.655 113.638 738.299 109.958C740.944 106.163 742.899 102.253 744.164 98.2282C745.429 94.2033 746.234 90.8684 746.579 88.2235H748.477V126H643.254V123.585Z" fill="#898989" fill-opacity="0.06"/>
</svg>
