<svg width="936" height="172" viewBox="0 0 936 172" fill="none" xmlns="http://www.w3.org/2000/svg">
<path d="M0.9275 116.94V168H4.6075C5.37417 165.853 6.2175 164.473 7.1375 163.86C8.0575 163.093 9.59083 162.71 11.7375 162.71C13.2708 162.71 15.5708 163.17 18.6375 164.09C21.8575 165.01 25.4608 166.007 29.4475 167.08C33.5875 168 37.9575 168.92 42.5575 169.84C47.3108 170.76 52.0642 171.22 56.8175 171.22C66.3242 171.22 74.9108 169.763 82.5775 166.85C90.3975 163.783 97.0675 159.72 102.587 154.66C108.261 149.6 112.631 143.697 115.698 136.95C118.764 130.203 120.298 123.073 120.298 115.56C120.298 107.893 118.841 101.453 115.928 96.24C113.168 91.0267 109.488 86.58 104.888 82.9C100.288 79.22 94.9975 76.23 89.0175 73.93C83.1908 71.4767 77.1342 69.2533 70.8475 67.26C64.7142 65.2667 58.6575 63.35 52.6775 61.51C46.8508 59.67 41.6375 57.5233 37.0375 55.07C32.4375 52.4633 28.6808 49.3967 25.7675 45.87C23.0075 42.3433 21.6275 37.8967 21.6275 32.53C21.6275 29.0033 22.4708 25.5533 24.1575 22.18C25.8442 18.8067 28.2975 15.74 31.5175 12.98C34.7375 10.22 38.6475 7.99666 43.2475 6.31C48.0008 4.62333 53.4442 3.77999 59.5775 3.77999C67.0908 3.77999 73.3008 5.08332 78.2075 7.68999C83.1142 10.2967 87.1775 13.7467 90.3975 18.04C93.6175 22.18 96.2242 26.8567 98.2175 32.07C100.364 37.2833 102.358 42.5733 104.198 47.94H107.188V4.24H103.508C102.741 6.07999 101.974 7.38332 101.208 8.14999C100.594 8.76332 99.2142 9.06999 97.0675 9.06999C95.2275 9.06999 93.1575 8.60999 90.8575 7.68999C88.7108 6.77 86.1808 5.84999 83.2675 4.92999C80.3542 3.85666 76.9808 2.85999 73.1475 1.93999C69.3142 1.01999 64.8675 0.55999 59.8075 0.55999C51.8342 0.55999 44.3975 1.93999 37.4975 4.69999C30.7508 7.30666 24.9242 10.8333 20.0175 15.28C15.1108 19.5733 11.2775 24.5567 8.5175 30.23C5.7575 35.9033 4.3775 41.8067 4.3775 47.94C4.3775 56.22 5.68083 63.12 8.2875 68.64C11.0475 74.16 14.6508 78.8367 19.0975 82.67C23.5442 86.35 28.6042 89.4167 34.2775 91.87C39.9508 94.17 45.7775 96.24 51.7575 98.08C57.7375 99.7667 63.5642 101.453 69.2375 103.14C74.9108 104.827 79.9708 106.897 84.4175 109.35C88.8642 111.803 92.3908 114.87 94.9975 118.55C97.7575 122.23 99.1375 126.907 99.1375 132.58C99.1375 135.647 98.5242 139.25 97.2975 143.39C96.0708 147.377 93.9242 151.21 90.8575 154.89C87.9442 158.57 83.8808 161.713 78.6675 164.32C73.4542 166.773 66.7842 168 58.6575 168C56.3575 168 53.8275 168 51.0675 168C48.4608 167.847 45.6242 167.387 42.5575 166.62C39.6442 165.7 36.5008 164.32 33.1275 162.48C29.9075 160.64 26.5342 157.957 23.0075 154.43C19.7875 151.363 17.0275 148.067 14.7275 144.54C12.5808 140.86 10.7408 137.333 9.2075 133.96C7.8275 130.433 6.75417 127.213 5.9875 124.3C5.22083 121.233 4.68417 118.78 4.3775 116.94H0.9275ZM199.978 7.46V164.78H178.818V168H254.488V164.78H233.328V7.46H241.608C247.281 7.46 252.341 8.07333 256.788 9.29999C261.235 10.3733 265.221 12.3667 268.748 15.28C272.275 18.04 275.418 21.95 278.178 27.01C280.938 32.07 283.468 38.51 285.768 46.33H288.758V4.24H144.548V46.33H147.538C149.838 38.51 152.368 32.07 155.128 27.01C157.888 21.95 161.031 18.04 164.558 15.28C168.085 12.3667 172.071 10.3733 176.518 9.29999C180.965 8.07333 186.025 7.46 191.698 7.46H199.978ZM305.106 4.24V7.46H326.496V114.87C326.496 121.77 327.263 128.593 328.796 135.34C330.329 142.087 333.473 148.143 338.226 153.51C343.133 158.723 350.109 163.017 359.156 166.39C368.203 169.61 380.163 171.22 395.036 171.22C404.236 171.22 411.979 170.147 418.266 168C424.553 166.007 429.766 163.4 433.906 160.18C438.046 156.807 441.189 153.05 443.336 148.91C445.483 144.77 447.093 140.63 448.166 136.49C449.239 132.35 449.853 128.44 450.006 124.76C450.159 120.927 450.236 117.783 450.236 115.33V7.46H471.626V4.24H425.626V7.46H446.556V115.56C446.556 117.86 446.479 120.773 446.326 124.3C446.173 127.673 445.636 131.353 444.716 135.34C443.796 139.173 442.339 143.083 440.346 147.07C438.353 150.903 435.516 154.43 431.836 157.65C428.156 160.717 423.479 163.247 417.806 165.24C412.286 167.08 405.386 168 397.106 168C388.673 168 381.926 166.39 376.866 163.17C371.959 159.797 368.203 155.427 365.596 150.06C363.143 144.693 361.533 138.637 360.766 131.89C360.153 124.99 359.846 117.937 359.846 110.73V7.46H381.006V4.24H305.106ZM538.63 164.78V7.46C540.163 7.15332 542.156 6.99999 544.61 6.99999C547.063 6.84666 549.823 6.76999 552.89 6.76999C566.23 6.76999 576.963 8.68666 585.09 12.52C593.37 16.3533 599.733 21.8733 604.18 29.08C608.78 36.1333 611.846 44.72 613.38 54.84C614.913 64.8067 615.68 76 615.68 88.42C615.68 93.48 615.45 98.9233 614.99 104.75C614.53 110.423 613.533 116.173 612 122C610.62 127.673 608.473 133.117 605.56 138.33C602.8 143.543 598.966 148.22 594.06 152.36C589.306 156.347 583.403 159.567 576.35 162.02C569.296 164.32 560.786 165.47 550.82 165.47C547.14 165.47 543.076 165.24 538.63 164.78ZM505.28 7.46V164.78H484.12V168H505.28C514.02 168 522.683 168.077 531.27 168.23C540.01 168.383 548.75 168.46 557.49 168.46C563.47 168.46 569.91 168 576.81 167.08C583.863 166.16 590.916 164.55 597.97 162.25C605.176 159.797 612.076 156.577 618.67 152.59C625.263 148.603 631.09 143.543 636.15 137.41C641.363 131.277 645.503 123.993 648.57 115.56C651.636 107.127 653.17 97.3133 653.17 86.12C653.17 74.7733 651.636 64.8833 648.57 56.45C645.503 48.0167 641.363 40.7333 636.15 34.6C630.936 28.4667 624.956 23.4067 618.21 19.42C611.463 15.4333 604.333 12.29 596.82 9.98999C589.306 7.53666 581.716 5.84999 574.05 4.92999C566.383 4.00999 559.1 3.54999 552.2 3.54999C544.38 3.54999 536.56 3.70332 528.74 4.00999C520.92 4.16333 513.1 4.24 505.28 4.24H484.12V7.46H505.28ZM673.279 4.24V7.46H694.439V164.78H673.279V168H748.949V164.78H727.789V7.46H748.949V4.24H673.279ZM805.121 86.58C805.121 74.4667 805.657 63.35 806.731 53.23C807.804 43.11 810.027 34.37 813.401 27.01C816.774 19.65 821.681 13.9767 828.121 9.98999C834.561 5.84999 843.147 3.77999 853.881 3.77999C865.381 3.77999 874.351 6.00332 880.791 10.45C887.384 14.7433 892.291 20.6467 895.511 28.16C898.731 35.52 900.647 44.1067 901.261 53.92C902.027 63.58 902.411 73.7767 902.411 84.51C902.411 96.47 901.951 107.587 901.031 117.86C900.264 127.98 898.271 136.797 895.051 144.31C891.831 151.67 887.001 157.497 880.561 161.79C874.121 165.93 865.227 168 853.881 168C845.294 168 837.857 166.773 831.571 164.32C825.437 161.867 820.377 157.573 816.391 151.44C812.557 145.153 809.721 136.797 807.881 126.37C806.041 115.79 805.121 102.527 805.121 86.58ZM767.631 86.58C767.631 98.54 770.007 109.657 774.761 119.93C779.514 130.203 785.801 139.173 793.621 146.84C801.594 154.353 810.794 160.333 821.221 164.78C831.647 169.073 842.534 171.22 853.881 171.22C865.381 171.22 876.267 168.997 886.541 164.55C896.967 159.95 906.091 153.74 913.911 145.92C921.884 138.1 928.171 129.053 932.771 118.78C937.524 108.353 939.901 97.39 939.901 85.89C939.901 72.7033 937.371 60.8967 932.311 50.47C927.404 39.89 920.887 30.92 912.761 23.56C904.787 16.2 895.587 10.5267 885.161 6.53999C874.887 2.55332 864.461 0.55999 853.881 0.55999C844.067 0.55999 834.024 2.62999 823.751 6.76999C813.477 10.7567 804.201 16.5067 795.921 24.02C787.641 31.5333 780.817 40.58 775.451 51.16C770.237 61.74 767.631 73.5467 767.631 86.58Z" fill="black" fill-opacity="0.83"/>
</svg>
