<svg width="1413" height="409" viewBox="0 0 1413 409" fill="none" xmlns="http://www.w3.org/2000/svg">
<path fill-rule="evenodd" clip-rule="evenodd" d="M67.4193 9.59951V113.1H76.7193C93.7193 113.1 106.019 109.3 113.619 101.7C121.219 93.8995 125.019 80.7995 125.019 62.3995C125.019 44.9995 121.719 31.6995 115.119 22.4995C108.519 13.2995 96.5193 8.6995 79.1193 8.6995C76.9193 8.6995 74.8193 8.7995 72.8193 8.9995C70.8193 9.19949 69.0193 9.3995 67.4193 9.59951ZM67.4193 117.3V214.8H95.0193V219H-3.68066V214.8H23.9193V9.59951H-3.68066V5.39951H23.9193C34.1193 5.39951 44.3193 5.2995 54.5193 5.09949C64.7193 4.6995 74.9193 4.4995 85.1193 4.4995C94.1193 4.4995 103.819 5.2995 114.219 6.89951C124.619 8.2995 134.219 11.0995 143.019 15.2995C151.819 19.2995 159.119 24.9995 164.919 32.3995C170.919 39.5995 173.919 48.9995 173.919 60.5995C173.919 68.3995 172.019 75.7995 168.219 82.7995C164.419 89.5995 158.619 95.5995 150.819 100.8C143.019 105.8 133.219 109.8 121.419 112.8C109.619 115.8 95.7193 117.3 79.7193 117.3H67.4193ZM191.151 9.59951V5.39951H289.851V9.59951H262.251V108H348.951V9.59951H321.351V5.39951H420.051V9.59951H392.451V189.924C399.378 189.641 406.377 189.499 413.446 189.499C421.246 189.499 429.446 190.299 438.046 191.9C446.846 193.499 454.846 196.299 462.046 200.299C469.246 204.1 475.146 209.299 479.746 215.9C484.546 222.499 486.946 230.799 486.946 240.799C486.946 248.799 485.146 255.7 481.546 261.5C477.946 267.1 473.246 271.699 467.446 275.299C461.846 278.9 455.546 281.699 448.546 283.699C441.546 285.5 434.646 286.699 427.846 287.299V288.799C437.646 290.6 446.346 292.4 453.946 294.199C461.746 296 468.446 298.699 474.046 302.299C479.646 305.9 484.046 310.9 487.246 317.299C490.646 323.7 492.746 332.299 493.546 343.1C494.546 355.7 495.346 365.799 495.946 373.4C496.546 381 497.346 386.9 498.346 391.1C499.546 395.299 501.046 398.1 502.846 399.5C504.846 400.9 507.646 401.6 511.246 401.6C513.298 401.6 515.166 401.31 516.85 400.731V399.799H518.963C519.739 399.375 520.466 398.875 521.146 398.299C523.746 395.9 526.046 393.7 528.046 391.7L531.046 394.4C529.157 396.289 527.267 398.089 525.378 399.799H542.05L624.663 198.533C616.718 204.915 607.914 210.237 598.253 214.5C584.853 220.3 570.653 223.2 555.653 223.2C540.853 223.2 526.653 220.4 513.053 214.8C499.453 209 487.453 201.2 477.053 191.4C466.853 181.4 458.653 169.7 452.453 156.3C446.253 142.9 443.153 128.4 443.153 112.8C443.153 95.7995 446.553 80.3995 453.353 66.5995C460.353 52.7995 469.253 40.9995 480.053 31.1995C490.853 21.3995 502.953 13.8995 516.353 8.6995C529.753 3.2995 542.853 0.599498 555.653 0.599498C569.453 0.599498 583.053 3.1995 596.453 8.39951C610.053 13.5995 622.053 20.9995 632.453 30.5995C643.053 40.1995 651.553 51.8995 657.953 65.6995C664.553 79.2995 667.853 94.6995 667.853 111.9C667.853 126.9 664.753 141.2 658.553 154.799C653.815 165.381 647.705 174.965 640.223 183.551L734.05 399.799H759.85V404H659.05V399.799H686.95L652.15 319.4H580.15L546.85 399.799H573.55V404H519.079C518.871 404.101 518.66 404.201 518.446 404.299C516.046 405.5 513.046 406.4 509.446 407C505.846 407.799 501.346 408.2 495.946 408.2C484.946 408.2 476.346 406.5 470.146 403.1C463.946 399.5 459.346 395.1 456.346 389.9C453.346 384.7 451.446 379.1 450.646 373.1C450.046 366.9 449.646 361.1 449.446 355.699C449.046 347.5 448.446 339.6 447.646 332C447.046 324.199 445.446 317.299 442.846 311.299C440.246 305.299 436.346 300.5 431.146 296.9C425.946 293.299 418.646 291.5 409.246 291.5H389.446V399.799H417.046V404H318.346V399.799H345.946V219H321.351V214.8H345.946V194.6H318.346V190.4H348.951V112.2H262.251V195.414C263.411 194.404 264.478 192.732 265.45 190.4H270.55V214.8H289.851V219H270.55V251.6H266.05C262.675 238.88 258.206 228.013 252.641 219H191.151V214.8H218.751V191.857C213.292 190.412 207.358 189.726 200.95 189.799C187.15 189.799 176.05 192.499 167.65 197.9C159.25 203.1 152.75 210 148.15 218.6C143.75 226.999 140.85 236.7 139.45 247.7C138.05 258.5 137.35 269.5 137.35 280.699V306.799C137.35 325 138.55 340.299 140.95 352.7C143.35 365.1 147.05 375.1 152.05 382.7C157.25 390.299 163.85 395.799 171.85 399.2C180.05 402.4 189.75 404 200.95 404C210.15 404 217.45 402.4 222.85 399.2C228.25 395.799 232.35 391.299 235.15 385.7C238.15 379.9 240.05 373.1 240.85 365.299C241.65 357.5 242.05 349 242.05 339.799V328.4H211.15V324.2H303.85V328.4H284.35V397.1H278.95C278.55 394.7 277.35 393 275.35 392C273.55 390.799 271.45 390.2 269.05 390.2C264.25 390.2 259.65 391.2 255.25 393.2C251.05 395 246.45 397 241.45 399.2C236.45 401.4 230.65 403.4 224.05 405.2C217.65 407.2 209.85 408.2 200.65 408.2C186.05 408.2 171.95 405.4 158.35 399.799C144.75 394 132.75 386.2 122.35 376.4C112.15 366.4 103.95 354.7 97.7498 341.299C91.5498 327.9 88.4498 313.4 88.4498 297.799C88.4498 280.799 91.8498 265.4 98.6498 251.6C105.65 237.799 114.55 225.999 125.35 216.199C136.15 206.4 148.15 198.9 161.35 193.7C174.75 188.299 187.85 185.6 200.65 185.6C206.65 185.6 212.45 186.199 218.05 187.399C218.284 187.45 218.518 187.5 218.751 187.551V9.59951H191.151ZM389.446 219V287.299H401.746C410.746 287.299 417.846 286.1 423.046 283.699C428.246 281.299 432.146 278.1 434.746 274.1C437.346 269.9 438.946 265.199 439.546 260C440.346 254.799 440.746 249.499 440.746 244.1C440.746 235.299 440.146 227.799 438.946 221.6C437.746 215.199 435.746 209.999 432.946 205.999C430.146 201.799 426.246 198.699 421.246 196.699C416.446 194.699 410.246 193.7 402.646 193.7C400.446 193.7 398.246 193.799 396.046 193.999L392.451 194.326V214.8H420.051V219H389.446ZM494.153 69.2995C492.753 82.4995 492.053 96.9995 492.053 112.8C492.053 133.6 493.253 150.9 495.653 164.7C498.053 178.3 501.753 189.2 506.753 197.4C511.953 205.4 518.553 211 526.553 214.2C534.753 217.4 544.453 219 555.653 219C570.453 219 582.053 216.3 590.453 210.9C598.853 205.3 605.153 197.7 609.353 188.1C613.553 178.3 616.153 166.8 617.153 153.6C618.353 140.2 618.953 125.7 618.953 110.1C618.953 96.0995 618.453 82.7995 617.453 70.1995C616.653 57.3995 614.153 46.1995 609.953 36.5995C605.753 26.7995 599.353 19.0995 590.753 13.4995C582.353 7.6995 570.653 4.7995 555.653 4.7995C541.653 4.7995 530.453 7.4995 522.053 12.8995C513.653 18.0995 507.253 25.4995 502.853 35.0995C498.453 44.6995 495.553 56.0995 494.153 69.2995ZM764.455 190.4V9.59951H753.655C746.255 9.59951 739.655 10.3995 733.855 11.9995C728.055 13.3995 722.855 15.9995 718.255 19.7995C713.655 23.3995 709.555 28.4995 705.955 35.0995C702.355 41.6995 699.055 50.0995 696.055 60.2995H692.155V5.39951H880.255V60.2995H876.355C873.355 50.0995 870.055 41.6995 866.455 35.0995C862.855 28.4995 858.755 23.3995 854.155 19.7995C849.555 15.9995 844.355 13.3995 838.555 11.9995C832.755 10.3995 826.155 9.59951 818.755 9.59951H807.955V190.294C812.099 190.245 816.243 190.181 820.387 190.099C830.587 189.699 840.787 189.499 850.987 189.499C859.987 189.499 869.687 190.299 880.087 191.9C890.487 193.299 900.087 196.1 908.887 200.299C917.687 204.299 924.987 209.999 930.787 217.4C936.787 224.6 939.787 234 939.787 245.6C939.787 253.4 937.887 260.799 934.087 267.799C930.287 274.6 924.487 280.6 916.687 285.799C908.887 290.799 899.087 294.799 887.287 297.799C875.487 300.799 861.587 302.299 845.587 302.299H833.287V399.799H860.887V404H762.187V399.799H789.786V219H736.855V214.8H764.455V194.6H762.187V190.4H764.455ZM833.287 219V298.1H842.587C859.587 298.1 871.887 294.299 879.487 286.699C887.087 278.9 890.887 265.799 890.887 247.4C890.887 230 887.587 216.7 880.987 207.499C874.387 198.299 862.387 193.7 844.987 193.7C842.787 193.7 840.687 193.799 838.687 193.999C836.687 194.199 834.887 194.4 833.287 194.6V214.8H835.555V219H833.287ZM955.579 69.2995C954.179 82.4995 953.479 96.9995 953.479 112.8C953.479 133.6 954.679 150.9 957.079 164.7C958.85 174.737 961.329 183.304 964.517 190.4H1055.72V194.6H1028.12V218.436C1037.77 217.388 1045.69 214.876 1051.88 210.9C1060.28 205.3 1066.58 197.7 1070.78 188.1C1074.98 178.3 1077.58 166.8 1078.58 153.6C1079.78 140.2 1080.38 125.7 1080.38 110.1C1080.38 96.0995 1079.88 82.7995 1078.88 70.1995C1078.08 57.3995 1075.58 46.1995 1071.38 36.5995C1067.18 26.7995 1060.78 19.0995 1052.18 13.4995C1043.78 7.6995 1032.08 4.7995 1017.08 4.7995C1003.08 4.7995 991.879 7.4995 983.479 12.8995C975.079 18.0995 968.679 25.4995 964.279 35.0995C959.879 44.6995 956.979 56.0995 955.579 69.2995ZM984.618 218.422C981.202 217.384 977.822 216.176 974.479 214.8C960.879 209 948.879 201.2 938.479 191.4C928.279 181.4 920.079 169.7 913.879 156.3C907.679 142.9 904.579 128.4 904.579 112.8C904.579 95.7995 907.979 80.3995 914.779 66.5995C921.779 52.7995 930.679 40.9995 941.479 31.1995C952.279 21.3995 964.379 13.8995 977.779 8.6995C991.179 3.2995 1004.28 0.599498 1017.08 0.599498C1030.88 0.599498 1044.48 3.1995 1057.88 8.39951C1071.48 13.5995 1083.48 20.9995 1093.88 30.5995C1104.48 40.1995 1112.98 51.8995 1119.38 65.6995C1125.98 79.2995 1129.28 94.6995 1129.28 111.9C1129.28 126.9 1126.18 141.2 1119.98 154.799C1113.98 168.2 1105.78 180 1095.38 190.2C1095.31 190.266 1095.25 190.333 1095.18 190.4H1185.92V194.6H1158.32V399.799H1185.92V404H1087.22V399.799H1114.82V297.2H1028.12V399.799H1055.72V404H957.018V399.799H984.618V218.422ZM984.618 212.672V194.6H966.578C967.096 195.565 967.629 196.499 968.179 197.4C972.632 204.25 978.111 209.341 984.618 212.672ZM1090.73 194.6H1114.82V293H1028.12V222.662C1039.09 221.578 1049.61 218.858 1059.68 214.5C1071.26 209.389 1081.61 202.756 1090.73 194.6ZM650.65 315.2L615.25 233.3L581.65 315.2H650.65ZM1191.92 194.6V190.4H1288.52V194.6H1264.82L1326.02 299.299L1381.22 194.6H1355.12V190.4H1412.42V194.6H1386.32L1328.42 304.699V399.799H1356.32V404H1257.32V399.799H1284.92V316.1L1215.32 194.6H1191.92Z" fill="black" fill-opacity="0.83"/>
</svg>
