<svg width="17" height="21" viewBox="0 0 17 21" fill="none" xmlns="http://www.w3.org/2000/svg">
<path fill-rule="evenodd" clip-rule="evenodd" d="M0.772665 0C0.977589 0 1.17412 0.0790176 1.31902 0.219669C1.46392 0.360321 1.54533 0.551088 1.54533 0.75L1.54533 20.25C1.54533 20.4489 1.46392 20.6397 1.31902 20.7803C1.17412 20.921 0.977589 21 0.772665 21C0.567741 21 0.37121 20.921 0.226309 20.7803C0.0814056 20.6397 0 20.4489 0 20.25L0 0.75C0 0.551088 0.0814056 0.360321 0.226309 0.219669C0.37121 0.0790176 0.567741 0 0.772665 0ZM4.63599 10.5C4.63599 10.3011 4.71739 10.1103 4.8623 9.96967C5.0072 9.82902 5.20373 9.75 5.40865 9.75L14.3607 9.75L11.0429 6.531C10.9711 6.46127 10.9141 6.37848 10.8752 6.28738C10.8363 6.19627 10.8163 6.09862 10.8163 6C10.8163 5.90138 10.8363 5.80373 10.8752 5.71262C10.9141 5.62152 10.9711 5.53873 11.0429 5.469C11.1148 5.39927 11.2 5.34395 11.2939 5.30622C11.3878 5.26848 11.4884 5.24905 11.59 5.24905C11.6916 5.24905 11.7922 5.26848 11.886 5.30622C11.9799 5.34395 12.0652 5.39927 12.137 5.469L16.773 9.969C16.845 10.0387 16.902 10.1214 16.941 10.2126C16.9799 10.3037 17 10.4013 17 10.5C17 10.5987 16.9799 10.6963 16.941 10.7875C16.902 10.8786 16.845 10.9613 16.773 11.031L12.137 15.531C11.9919 15.6718 11.7951 15.7509 11.59 15.7509C11.3848 15.7509 11.188 15.6718 11.0429 15.531C10.8978 15.3902 10.8163 15.1992 10.8163 15C10.8163 14.8008 10.8978 14.6098 11.0429 14.469L14.3607 11.25L5.40865 11.25C5.20373 11.25 5.0072 11.171 4.8623 11.0303C4.71739 10.8897 4.63599 10.6989 4.63599 10.5Z" fill="#F8F8F8" fill-opacity="0.7"/>
</svg>
