<svg width="96" height="32" viewBox="0 0 96 32" fill="none" xmlns="http://www.w3.org/2000/svg">
<path fill-rule="evenodd" clip-rule="evenodd" d="M28.1478 18.6296H25.2113V19H33.7297V18.6296H30.7932V10.1906L35.9519 0.534727H38.518V0.164363H32.8567V0.534727H35.5286L30.5287 9.84673L25.2378 0.534727H27.8832V0.164363H19.7881V0.534727H22.1955L28.1478 11.0372V18.6296ZM46.1925 18.6296H43.256V19H51.7744V18.6296H48.8379V0.534727H50.3723C50.725 0.534727 51.1218 0.569999 51.5627 0.640545C52.0037 0.693453 52.4446 0.860999 52.8855 1.14318C53.344 1.42536 53.7761 1.87509 54.1817 2.49236C54.605 3.092 54.9666 3.92973 55.2664 5.00554H55.5574V0.164363H39.473V5.00554H39.764C40.0638 3.92973 40.4166 3.092 40.8222 2.49236C41.2455 1.87509 41.6776 1.42536 42.1185 1.14318C42.577 0.860999 43.0267 0.693453 43.4677 0.640545C43.9086 0.569999 44.3054 0.534727 44.6581 0.534727H46.1925V18.6296ZM63.9592 18.709C63.5712 18.6914 63.2273 18.6649 62.9275 18.6296V0.534727C63.2625 0.517089 63.6065 0.499453 63.9592 0.481817C64.3295 0.46418 64.7352 0.455362 65.1761 0.455362C66.6575 0.455362 67.9009 0.675817 68.9062 1.11673C69.9115 1.55764 70.7139 2.18373 71.3135 2.995C71.9308 3.78864 72.3717 4.75864 72.6363 5.905C72.9008 7.03373 73.0331 8.29473 73.0331 9.688C73.0331 10.8696 72.9184 11.9631 72.6892 12.9684C72.4775 13.956 72.0895 14.926 71.5252 15.8784C71.1548 16.4956 70.7315 16.9983 70.2554 17.3863C69.7968 17.7566 69.2942 18.0476 68.7475 18.2593C68.2184 18.4533 67.654 18.5855 67.0544 18.6561C66.4724 18.709 65.8815 18.7355 65.2819 18.7355C64.8057 18.7355 64.3648 18.7266 63.9592 18.709ZM60.282 18.6296H57.3455V19H61.8428H62.6629L63.5624 19.0529C63.8622 19.0705 64.162 19.0794 64.4618 19.0794C64.7616 19.097 65.0438 19.1058 65.3084 19.1058C65.9256 19.1058 66.4724 19.097 66.9485 19.0794C67.4247 19.0617 67.8568 19.0265 68.2448 18.9735C68.6505 18.9206 69.0385 18.8413 69.4088 18.7355C69.7968 18.6296 70.2025 18.4797 70.6257 18.2857C71.3841 17.9683 72.0895 17.5538 72.7421 17.0424C73.4123 16.5133 73.9943 15.896 74.4881 15.1905C74.9819 14.4675 75.3699 13.6474 75.6521 12.7303C75.9343 11.7955 76.0754 10.7462 76.0754 9.58218C76.0754 8.57691 75.9519 7.61573 75.705 6.69864C75.4757 5.78154 75.1054 4.935 74.5939 4.159C74.1001 3.383 73.4564 2.704 72.6627 2.122C71.8867 1.52236 70.9608 1.04618 69.885 0.693453C69.5146 0.569998 69.1619 0.472998 68.8268 0.402454C68.5094 0.314272 68.1655 0.252545 67.7951 0.217271C67.4424 0.164362 67.0544 0.129089 66.6311 0.111453C66.2255 0.0938168 65.7581 0.0849987 65.229 0.0849987C64.9821 0.0849987 64.7352 0.0938168 64.4883 0.111453H63.7475L63.0068 0.164363H62.2661H57.3455V0.534727H60.282V18.6296ZM2.80773 24.6555C2.66223 24.6422 2.52334 24.6224 2.39107 24.5959V21.223C2.44398 21.2164 2.52003 21.2098 2.61924 21.2031C2.72505 21.1965 2.84079 21.1932 2.96645 21.1932C3.28391 21.1932 3.55507 21.2197 3.77993 21.2726C4.01141 21.3255 4.19659 21.4214 4.33548 21.5603C4.48098 21.6926 4.58679 21.8711 4.65293 22.096C4.71907 22.3208 4.75213 22.6019 4.75213 22.9392C4.75213 23.5212 4.61325 23.9577 4.33548 24.2487C4.06432 24.5331 3.68403 24.6753 3.19462 24.6753C3.08219 24.6753 2.95323 24.6687 2.80773 24.6555ZM1.39902 28.0086H0.297852V28.1475H3.49224V28.0086H2.39107V24.7348C2.5035 24.7547 2.63246 24.7745 2.77796 24.7943C2.92346 24.8076 3.04251 24.8142 3.1351 24.8142C3.49885 24.8142 3.84607 24.7712 4.17675 24.6852C4.51404 24.5992 4.80835 24.4769 5.05967 24.3182C5.31099 24.1594 5.5127 23.9643 5.66482 23.7329C5.81693 23.5014 5.89299 23.2368 5.89299 22.9392C5.89299 22.6548 5.82685 22.3969 5.69458 22.1654C5.5623 21.9339 5.37712 21.7355 5.13903 21.5702C4.90756 21.4049 4.62978 21.2792 4.30571 21.1932C3.98826 21.1006 3.64104 21.0543 3.26407 21.0543C3.17148 21.0543 3.07888 21.0576 2.98629 21.0643H2.71844L2.44067 21.0841H2.1629H0.297852V21.223H1.39902V28.0086ZM7.44492 28.0086H6.68104V28.1475H9.06195V28.0086H8.29808V25.7666C8.29808 25.502 8.33776 25.2573 8.41712 25.0324C8.5031 24.8076 8.61884 24.6125 8.76434 24.4471C8.90984 24.2818 9.07849 24.1528 9.27028 24.0602C9.46208 23.9676 9.66379 23.9213 9.87543 23.9213C10.1334 23.9213 10.3218 24.004 10.4409 24.1694C10.5666 24.3347 10.6294 24.5463 10.6294 24.8043V28.0086H9.86551V28.1475H12.2464V28.0086H11.4825V25.1118C11.4825 24.6488 11.3437 24.3116 11.0659 24.0999C10.7947 23.8883 10.4409 23.7825 10.0044 23.7825C9.73324 23.7825 9.49845 23.8254 9.30004 23.9114C9.10825 23.9908 8.94291 24.09 8.80402 24.209C8.67175 24.3215 8.56593 24.4438 8.48657 24.5761C8.4072 24.7018 8.35099 24.8076 8.31792 24.8936H8.29808V20.9948H6.68104V21.1337H7.44492V28.0086ZM14.2172 27.0342C14.1364 26.7255 14.096 26.3103 14.096 25.7886C14.096 25.3477 14.1254 24.9803 14.1842 24.6863C14.2429 24.385 14.3311 24.1425 14.4487 23.9588C14.5736 23.7678 14.728 23.6318 14.9117 23.551C15.0954 23.4701 15.3122 23.4297 15.562 23.4297C15.8119 23.4297 16.0286 23.4701 16.2123 23.551C16.3961 23.6318 16.5467 23.7678 16.6643 23.9588C16.7892 24.1425 16.8811 24.385 16.9398 24.6863C16.9986 24.9803 17.028 25.3477 17.028 25.7886C17.028 26.3103 16.9876 26.7255 16.9068 27.0342C16.8259 27.3428 16.7194 27.5816 16.5871 27.7506C16.4548 27.9123 16.3005 28.0189 16.1242 28.0703C15.9478 28.1217 15.7604 28.1475 15.562 28.1475C15.3636 28.1475 15.1762 28.1217 14.9998 28.0703C14.8235 28.0189 14.6692 27.9123 14.5369 27.7506C14.4046 27.5816 14.2981 27.3428 14.2172 27.0342ZM13.2252 24.7855C13.0709 25.0942 12.9937 25.4285 12.9937 25.7886C12.9937 26.134 13.0672 26.461 13.2142 26.7696C13.3611 27.0709 13.5522 27.3355 13.7873 27.5633C14.0298 27.7911 14.3054 27.9711 14.614 28.1034C14.9227 28.2356 15.2387 28.3018 15.562 28.3018C15.8853 28.3018 16.2013 28.2356 16.51 28.1034C16.8186 27.9711 17.0905 27.7911 17.3256 27.5633C17.5681 27.3355 17.7629 27.0709 17.9098 26.7696C18.0568 26.461 18.1303 26.134 18.1303 25.7886C18.1303 25.4285 18.0495 25.0942 17.8878 24.7855C17.7335 24.4769 17.5314 24.2123 17.2815 23.9919C17.039 23.7641 16.7635 23.5877 16.4548 23.4628C16.1536 23.3379 15.8559 23.2754 15.562 23.2754C15.2681 23.2754 14.9668 23.3379 14.6581 23.4628C14.3569 23.5877 14.0813 23.7641 13.8314 23.9919C13.5889 24.2123 13.3869 24.4769 13.2252 24.7855ZM19.6588 23.4187H18.81V23.573H19.6588V27.0783C19.6588 27.4677 19.7653 27.769 19.9784 27.9821C20.1989 28.1952 20.5847 28.3018 21.1358 28.3018C21.3563 28.3018 21.54 28.265 21.6869 28.1916C21.8339 28.1254 21.9515 28.0409 22.0397 27.938C22.1352 27.8278 22.205 27.7139 22.2491 27.5963C22.2932 27.4787 22.3263 27.3722 22.3483 27.2767L22.194 27.2216C22.1499 27.4641 22.047 27.6808 21.8853 27.8719C21.731 28.0556 21.5253 28.1475 21.2681 28.1475C21.1946 28.1475 21.1174 28.1364 21.0366 28.1144C20.9631 28.0923 20.8933 28.0483 20.8272 27.9821C20.761 27.9086 20.7059 27.8094 20.6618 27.6845C20.6251 27.5522 20.6067 27.3832 20.6067 27.1775V23.573H22.1719V23.4187H20.6067V21.9086C20.5332 21.9674 20.4561 22.0115 20.3752 22.0409C20.2944 22.0629 20.1989 22.0739 20.0886 22.0739C19.9637 22.0739 19.8755 22.0666 19.8241 22.0519C19.7727 22.0372 19.7175 22.0188 19.6588 21.9968V23.4187ZM24.0128 27.0342C23.932 26.7255 23.8916 26.3103 23.8916 25.7886C23.8916 25.3477 23.921 24.9803 23.9797 24.6863C24.0385 24.385 24.1267 24.1425 24.2443 23.9588C24.3692 23.7678 24.5235 23.6318 24.7072 23.551C24.891 23.4701 25.1077 23.4297 25.3576 23.4297C25.6074 23.4297 25.8242 23.4701 26.0079 23.551C26.1916 23.6318 26.3423 23.7678 26.4599 23.9588C26.5848 24.1425 26.6766 24.385 26.7354 24.6863C26.7942 24.9803 26.8236 25.3477 26.8236 25.7886C26.8236 26.3103 26.7832 26.7255 26.7024 27.0342C26.6215 27.3428 26.515 27.5816 26.3827 27.7506C26.2504 27.9123 26.0961 28.0189 25.9198 28.0703C25.7434 28.1217 25.556 28.1475 25.3576 28.1475C25.1592 28.1475 24.9718 28.1217 24.7954 28.0703C24.6191 28.0189 24.4648 27.9123 24.3325 27.7506C24.2002 27.5816 24.0937 27.3428 24.0128 27.0342ZM23.0208 24.7855C22.8665 25.0942 22.7893 25.4285 22.7893 25.7886C22.7893 26.134 22.8628 26.461 23.0097 26.7696C23.1567 27.0709 23.3478 27.3355 23.5829 27.5633C23.8254 27.7911 24.101 27.9711 24.4096 28.1034C24.7183 28.2356 25.0343 28.3018 25.3576 28.3018C25.6809 28.3018 25.9969 28.2356 26.3055 28.1034C26.6142 27.9711 26.8861 27.7911 27.1212 27.5633C27.3637 27.3355 27.5585 27.0709 27.7054 26.7696C27.8524 26.461 27.9259 26.134 27.9259 25.7886C27.9259 25.4285 27.8451 25.0942 27.6834 24.7855C27.5291 24.4769 27.327 24.2123 27.0771 23.9919C26.8346 23.7641 26.5591 23.5877 26.2504 23.4628C25.9491 23.3379 25.6515 23.2754 25.3576 23.2754C25.0637 23.2754 24.7624 23.3379 24.4537 23.4628C24.1524 23.5877 23.8769 23.7641 23.627 23.9919C23.3845 24.2123 23.1824 24.4769 23.0208 24.7855ZM30.259 28.6545C30.3619 28.5957 30.4611 28.5369 30.5566 28.4781H31.7471C32.1365 28.4781 32.4415 28.5627 32.662 28.7317C32.8898 28.908 33.0037 29.202 33.0037 29.6135C33.0037 29.8045 32.9596 29.9883 32.8714 30.1646C32.7906 30.341 32.6693 30.4953 32.5076 30.6276C32.3533 30.7672 32.1659 30.8774 31.9455 30.9583C31.7324 31.0391 31.4935 31.0795 31.229 31.0795C31.06 31.0795 30.8873 31.0575 30.7109 31.0134C30.5346 30.9693 30.3729 30.8921 30.2259 30.7819C30.0863 30.679 29.9687 30.5394 29.8732 30.363C29.785 30.194 29.7409 29.9772 29.7409 29.7127C29.7409 29.5216 29.763 29.36 29.8071 29.2277C29.8585 29.1028 29.921 28.9925 29.9945 28.897C30.0753 28.8015 30.1635 28.7206 30.259 28.6545ZM32.3092 24.3887C32.3313 24.5577 32.3423 24.7267 32.3423 24.8958C32.3423 25.3808 32.2615 25.7445 32.0998 25.987C31.9381 26.2222 31.6662 26.3397 31.2841 26.3397C31.0563 26.3397 30.8689 26.3067 30.722 26.2405C30.575 26.1744 30.4574 26.0789 30.3692 25.9539C30.281 25.8217 30.2186 25.6673 30.1818 25.491C30.1525 25.3146 30.1378 25.1162 30.1378 24.8958C30.1378 24.374 30.2333 23.9992 30.4243 23.7714C30.6154 23.5436 30.8983 23.4297 31.2731 23.4297C31.5156 23.4297 31.7067 23.4738 31.8463 23.562C31.9932 23.6502 32.0998 23.7678 32.1659 23.9147C32.2394 24.0544 32.2872 24.2123 32.3092 24.3887ZM29.0134 26.9239C28.9399 27.0636 28.9032 27.2326 28.9032 27.431C28.9032 27.8131 29.0171 28.0813 29.2449 28.2356C29.4801 28.3973 29.8401 28.4781 30.3251 28.4781V28.5002C30.1708 28.559 30.0165 28.6325 29.8622 28.7206C29.7079 28.8088 29.5682 28.9117 29.4433 29.0293C29.3257 29.1542 29.2265 29.2938 29.1457 29.4481C29.0722 29.6098 29.0355 29.7862 29.0355 29.9772C29.0355 30.1756 29.0832 30.3557 29.1788 30.5173C29.2817 30.679 29.4213 30.815 29.5976 30.9252C29.774 31.0428 29.9798 31.1346 30.2149 31.2008C30.4574 31.2669 30.722 31.3 31.0085 31.3C31.3245 31.3 31.6332 31.2448 31.9345 31.1346C32.2357 31.0317 32.5003 30.8811 32.7281 30.6827C32.9632 30.4916 33.1506 30.2638 33.2903 29.9993C33.4299 29.7347 33.4997 29.4408 33.4997 29.1175C33.4997 28.5884 33.3454 28.2026 33.0367 27.9601C32.7354 27.7102 32.3276 27.5853 31.8132 27.5853H30.0716C29.9761 27.5853 29.8842 27.578 29.796 27.5633C29.7079 27.5486 29.627 27.5228 29.5535 27.4861C29.4874 27.4494 29.4323 27.3942 29.3882 27.3208C29.3441 27.2473 29.3221 27.1554 29.3221 27.0452C29.3221 26.9276 29.3478 26.8247 29.3992 26.7366C29.4507 26.641 29.5131 26.5602 29.5866 26.4941C29.6674 26.4279 29.752 26.3728 29.8401 26.3287C29.9357 26.2846 30.0239 26.2442 30.1047 26.2075C30.2076 26.2589 30.3545 26.3214 30.5456 26.3948C30.7367 26.461 30.9608 26.4941 31.218 26.4941C31.4678 26.4941 31.7103 26.4573 31.9455 26.3838C32.188 26.303 32.3974 26.1928 32.5738 26.0531C32.7575 25.9135 32.9045 25.7519 33.0147 25.5681C33.1249 25.3844 33.18 25.1823 33.18 24.9619C33.18 24.6973 33.1286 24.4769 33.0257 24.3005C32.9228 24.1242 32.8383 23.9992 32.7722 23.9258C32.831 23.8449 32.8971 23.7751 32.9706 23.7163C33.0514 23.6502 33.1286 23.6171 33.2021 23.6171C33.2756 23.6171 33.3307 23.6465 33.3674 23.7053C33.4042 23.7641 33.4372 23.8266 33.4666 23.8927C33.5034 23.9588 33.5438 24.0213 33.5879 24.0801C33.632 24.1389 33.7054 24.1683 33.8083 24.1683C33.8965 24.1683 33.981 24.1352 34.0618 24.0691C34.15 24.0029 34.1941 23.9037 34.1941 23.7714C34.1941 23.5657 34.1317 23.4334 34.0067 23.3746C33.8818 23.3085 33.7459 23.2754 33.5989 23.2754C33.3637 23.2754 33.1653 23.3342 33.0037 23.4518C32.8493 23.5694 32.7318 23.698 32.6509 23.8376C32.5407 23.7273 32.3643 23.6061 32.1218 23.4738C31.8867 23.3416 31.6038 23.2754 31.2731 23.2754C31.06 23.2754 30.8359 23.3122 30.6007 23.3856C30.3729 23.4591 30.1635 23.5694 29.9724 23.7163C29.7814 23.8559 29.6234 24.0286 29.4984 24.2344C29.3735 24.4401 29.311 24.6716 29.311 24.9288C29.311 25.4285 29.5242 25.8253 29.9504 26.1193C29.8548 26.1634 29.7446 26.2185 29.6197 26.2846C29.5021 26.3508 29.3882 26.4389 29.278 26.5492C29.1751 26.652 29.0869 26.777 29.0134 26.9239ZM35.2805 27.9931H34.4317V28.1475H37.1874V27.9931H36.2284V25.4689C36.2284 25.1603 36.2652 24.8884 36.3386 24.6533C36.4195 24.4108 36.515 24.205 36.6252 24.036C36.7428 23.867 36.8677 23.7384 37 23.6502C37.1323 23.562 37.2572 23.5179 37.3748 23.5179C37.632 23.5179 37.7606 23.6355 37.7606 23.8706C37.7606 23.9662 37.7532 24.0397 37.7385 24.0911C37.7238 24.1425 37.7055 24.1903 37.6834 24.2344C37.6687 24.2711 37.654 24.3116 37.6393 24.3556C37.6246 24.3924 37.6173 24.4438 37.6173 24.51C37.6173 24.7157 37.7789 24.8186 38.1023 24.8186C38.2492 24.8186 38.3778 24.7782 38.4881 24.6973C38.5983 24.6165 38.6534 24.4548 38.6534 24.2123C38.6534 24.1021 38.635 23.9919 38.5983 23.8817C38.5616 23.7714 38.5028 23.6759 38.4219 23.5951C38.3411 23.5069 38.2382 23.4371 38.1133 23.3856C37.9884 23.3269 37.8414 23.2975 37.6724 23.2975C37.4372 23.2975 37.2352 23.3416 37.0661 23.4297C36.9045 23.5179 36.7649 23.6281 36.6473 23.7604C36.5297 23.8853 36.4378 24.0176 36.3717 24.1572C36.3056 24.2969 36.2578 24.4218 36.2284 24.532H36.2064V23.4187H34.4317V23.573H35.2805V27.9931ZM41.9407 25.4469H41.9627V26.5492C41.9627 26.6961 41.948 26.8615 41.9186 27.0452C41.8966 27.2216 41.8451 27.3869 41.7643 27.5412C41.6908 27.6955 41.5769 27.8241 41.4226 27.927C41.2756 28.0299 41.0809 28.0813 40.8384 28.0813C40.6694 28.0813 40.5298 28.0519 40.4195 27.9931C40.3167 27.9344 40.2358 27.8609 40.177 27.7727C40.1183 27.6772 40.0778 27.5706 40.0558 27.453C40.0337 27.3355 40.0227 27.2216 40.0227 27.1113C40.0227 26.8541 40.0852 26.641 40.2101 26.472C40.335 26.2956 40.5151 26.1597 40.7502 26.0642L41.5769 25.7335C41.8047 25.638 41.926 25.5424 41.9407 25.4469ZM43.55 28.2136C43.6823 28.1622 43.7962 28.0997 43.8917 28.0262L43.8035 27.905C43.7227 27.9637 43.6382 28.0078 43.55 28.0372C43.4618 28.0666 43.3773 28.0813 43.2965 28.0813C43.1716 28.0813 43.076 28.0446 43.0099 27.9711C42.9438 27.8976 42.9107 27.7543 42.9107 27.5412V24.7966C42.9107 24.5981 42.8813 24.4108 42.8225 24.2344C42.7637 24.0507 42.6645 23.889 42.5249 23.7494C42.3853 23.6024 42.2016 23.4885 41.9738 23.4077C41.7459 23.3195 41.463 23.2754 41.125 23.2754C40.8458 23.2754 40.5959 23.3085 40.3755 23.3746C40.1623 23.4408 39.9823 23.5326 39.8353 23.6502C39.6957 23.7604 39.5892 23.889 39.5157 24.036C39.4422 24.183 39.4055 24.3373 39.4055 24.4989C39.4055 24.6386 39.4348 24.7525 39.4936 24.8406C39.5524 24.9288 39.7031 24.9729 39.9456 24.9729C40.0852 24.9729 40.1917 24.9398 40.2652 24.8737C40.3387 24.8002 40.3755 24.712 40.3755 24.6092C40.3755 24.5504 40.3644 24.4622 40.3424 24.3446C40.3203 24.2197 40.3093 24.0948 40.3093 23.9698C40.3093 23.7788 40.3865 23.6428 40.5408 23.562C40.7025 23.4738 40.9045 23.4297 41.147 23.4297C41.3308 23.4297 41.4777 23.4555 41.588 23.5069C41.6982 23.5583 41.7827 23.6355 41.8415 23.7384C41.9003 23.8339 41.9407 23.9515 41.9627 24.0911C41.9848 24.2307 41.9958 24.3887 41.9958 24.5651C41.9958 24.7855 41.9774 24.9619 41.9407 25.0942C41.9113 25.2191 41.8525 25.3256 41.7643 25.4138C41.6761 25.4947 41.5512 25.5645 41.3895 25.6233C41.2352 25.682 41.0368 25.7519 40.7943 25.8327C40.5886 25.8988 40.3828 25.9613 40.177 26.0201C39.9786 26.0789 39.7949 26.156 39.6259 26.2516C39.4642 26.3397 39.332 26.461 39.2291 26.6153C39.1262 26.7696 39.0748 26.9754 39.0748 27.2326C39.0748 27.3428 39.0895 27.4641 39.1189 27.5963C39.1556 27.7212 39.2254 27.8351 39.3283 27.938C39.4312 28.0409 39.5745 28.1254 39.7582 28.1916C39.9419 28.265 40.1881 28.3018 40.4967 28.3018C40.7686 28.3018 40.9927 28.2687 41.1691 28.2026C41.3455 28.1438 41.4851 28.0703 41.588 27.9821C41.6982 27.8866 41.779 27.7911 41.8305 27.6955C41.8819 27.5926 41.9223 27.5081 41.9517 27.442H41.9738C42.0325 27.7139 42.1391 27.927 42.2934 28.0813C42.4551 28.2283 42.7123 28.3018 43.065 28.3018C43.2561 28.3018 43.4177 28.2724 43.55 28.2136ZM48.7356 24.7194C48.7723 24.9839 48.7907 25.2852 48.7907 25.6233C48.7907 26.0054 48.7797 26.3544 48.7576 26.6704C48.7356 26.9791 48.6805 27.2436 48.5923 27.4641C48.5041 27.6845 48.3718 27.8535 48.1955 27.9711C48.0191 28.0887 47.7803 28.1475 47.479 28.1475C47.1704 28.1475 46.9205 28.0813 46.7295 27.9491C46.5457 27.8168 46.4025 27.6478 46.2996 27.442C46.1967 27.2289 46.1269 26.9937 46.0901 26.7366C46.0534 26.4794 46.035 26.2295 46.035 25.987C46.035 25.7004 46.0387 25.4542 46.046 25.2485C46.0607 25.0354 46.0828 24.848 46.1122 24.6863C46.1416 24.5247 46.1783 24.385 46.2224 24.2675C46.2738 24.1499 46.34 24.0397 46.4208 23.9368C46.531 23.7898 46.6743 23.6686 46.8507 23.573C47.0271 23.4775 47.2512 23.4297 47.5231 23.4297C47.7803 23.4297 47.9897 23.4812 48.1514 23.5841C48.3204 23.6869 48.449 23.8339 48.5372 24.025C48.6327 24.216 48.6989 24.4475 48.7356 24.7194ZM45.0871 31.0795H44.2383V31.2338H46.8838V31.0795H46.035V27.2326H46.0571C46.0791 27.3061 46.1195 27.4053 46.1783 27.5302C46.2371 27.6478 46.3216 27.7653 46.4318 27.8829C46.5421 27.9931 46.6817 28.0887 46.8507 28.1695C47.0271 28.2577 47.2402 28.3018 47.49 28.3018C47.8134 28.3018 48.1183 28.232 48.4049 28.0923C48.6989 27.9527 48.956 27.7653 49.1765 27.5302C49.397 27.295 49.5696 27.0268 49.6946 26.7255C49.8268 26.4169 49.893 26.0936 49.893 25.7555C49.893 25.4248 49.8305 25.1089 49.7056 24.8076C49.5807 24.5063 49.4117 24.2454 49.1985 24.025C48.9854 23.7972 48.7393 23.6171 48.46 23.4848C48.1808 23.3452 47.8832 23.2754 47.5672 23.2754C47.163 23.2754 46.8323 23.3783 46.5751 23.5841C46.3253 23.7825 46.1453 24.036 46.035 24.3446H46.013V23.4187H44.2383V23.573H45.0871V31.0795ZM51.588 27.9931H50.7392V28.1475H53.3847V27.9931H52.5359V25.502C52.5359 25.2081 52.58 24.9362 52.6682 24.6863C52.7637 24.4365 52.8923 24.2197 53.054 24.036C53.2157 23.8523 53.4031 23.709 53.6162 23.6061C53.8293 23.5032 54.0534 23.4518 54.2885 23.4518C54.5751 23.4518 54.7846 23.5436 54.9168 23.7273C55.0565 23.9111 55.1263 24.1462 55.1263 24.4328V27.9931H54.2775V28.1475H56.923V27.9931H56.0742V24.7745C56.0742 24.2601 55.9199 23.8853 55.6113 23.6502C55.31 23.415 54.9168 23.2975 54.4318 23.2975C54.1306 23.2975 53.8697 23.3452 53.6492 23.4408C53.4361 23.5289 53.2524 23.6392 53.0981 23.7714C52.9511 23.8964 52.8335 24.0323 52.7454 24.1793C52.6572 24.3189 52.5947 24.4365 52.558 24.532H52.5359V20.2001H50.7392V20.3544H51.588V27.9931ZM59.5677 23.4187H56.8672V23.573H57.6277L59.5347 28.2908L59.0497 29.5253C58.9321 29.8192 58.8256 30.0654 58.73 30.2638C58.6345 30.4696 58.539 30.6349 58.4434 30.7598C58.3479 30.8848 58.2487 30.973 58.1458 31.0244C58.0503 31.0832 57.9437 31.1126 57.8262 31.1126C57.738 31.1126 57.6682 31.0979 57.6167 31.0685C57.5653 31.0391 57.5396 30.9766 57.5396 30.8811C57.5396 30.7709 57.569 30.668 57.6277 30.5725C57.6939 30.4843 57.727 30.3887 57.727 30.2859C57.727 30.2124 57.7086 30.1499 57.6718 30.0985C57.6351 30.047 57.591 30.0066 57.5396 29.9772C57.4881 29.9478 57.433 29.9258 57.3742 29.9111C57.3154 29.9037 57.2603 29.9001 57.2089 29.9001C57.0619 29.9001 56.937 29.9442 56.8341 30.0323C56.7312 30.1279 56.6798 30.2675 56.6798 30.4512C56.6798 30.5173 56.6908 30.5982 56.7129 30.6937C56.7349 30.7892 56.7827 30.8811 56.8562 30.9693C56.9296 31.0575 57.0288 31.1346 57.1538 31.2008C57.286 31.2669 57.4587 31.3 57.6718 31.3C57.8482 31.3 58.0025 31.2669 58.1348 31.2008C58.2671 31.142 58.3883 31.0501 58.4985 30.9252C58.6161 30.8003 58.7263 30.6386 58.8292 30.4402C58.9321 30.2418 59.035 30.0103 59.1379 29.7458L59.5126 28.7758C59.6376 28.4598 59.7698 28.1438 59.9095 27.8278L61.7282 23.573H62.3234V23.4187H60.637V23.573H61.5518L60.0638 27.0342L58.6418 23.573H59.5677V23.4187ZM66.0355 26.6043H65.9143V28.1475H66.0355C66.0575 28.1107 66.0869 28.0777 66.1237 28.0483C66.1604 28.0115 66.2192 27.9931 66.3 27.9931C66.3809 27.9931 66.4691 28.0115 66.5646 28.0483C66.6601 28.0777 66.763 28.1107 66.8732 28.1475C66.9908 28.1842 67.1157 28.2173 67.248 28.2467C67.3876 28.2834 67.5383 28.3018 67.6999 28.3018C67.9792 28.3018 68.2254 28.2577 68.4385 28.1695C68.6589 28.0813 68.8426 27.9674 68.9896 27.8278C69.1439 27.6808 69.2578 27.5118 69.3313 27.3208C69.4121 27.1297 69.4526 26.935 69.4526 26.7366C69.4526 26.3985 69.3423 26.1266 69.1219 25.9209C68.9014 25.7151 68.6185 25.5534 68.2731 25.4359L67.4685 25.1713C67.1451 25.0684 66.8989 24.9582 66.7299 24.8406C66.5683 24.7157 66.4874 24.5357 66.4874 24.3005C66.4874 24.036 66.583 23.8266 66.774 23.6722C66.9724 23.5106 67.248 23.4297 67.6007 23.4297C67.7844 23.4297 67.9424 23.4628 68.0747 23.5289C68.2143 23.5951 68.3282 23.6869 68.4164 23.8045C68.5119 23.9221 68.5928 24.058 68.6589 24.2123C68.7251 24.3593 68.7838 24.5136 68.8353 24.6753H68.9565V23.4187H68.8353C68.7985 23.4775 68.7397 23.5069 68.6589 23.5069C68.5781 23.5069 68.5083 23.4959 68.4495 23.4738C68.3907 23.4444 68.3246 23.4187 68.2511 23.3967C68.1776 23.3673 68.0894 23.3416 67.9865 23.3195C67.891 23.2901 67.7624 23.2754 67.6007 23.2754C67.3729 23.2754 67.1598 23.3122 66.9614 23.3856C66.7704 23.4591 66.605 23.562 66.4654 23.6943C66.3258 23.8266 66.2155 23.9809 66.1347 24.1572C66.0539 24.3336 66.0135 24.5247 66.0135 24.7304C66.0135 24.9729 66.0465 25.1713 66.1127 25.3256C66.1861 25.48 66.278 25.6086 66.3882 25.7114C66.4985 25.807 66.616 25.8841 66.741 25.9429C66.8732 25.9944 66.9945 26.0384 67.1047 26.0752L67.9645 26.3728C68.1555 26.4389 68.3209 26.5308 68.4605 26.6484C68.6075 26.7586 68.681 26.9533 68.681 27.2326C68.681 27.5559 68.5891 27.7911 68.4054 27.938C68.2217 28.0777 68.0122 28.1475 67.7771 28.1475C67.4979 28.1475 67.259 28.0997 67.0606 28.0042C66.8622 27.9086 66.6932 27.7874 66.5536 27.6404C66.4213 27.4861 66.3148 27.3208 66.2339 27.1444C66.1531 26.9607 66.0869 26.7806 66.0355 26.6043ZM71.0264 23.4187H70.1776V23.573H71.0264V27.0783C71.0264 27.4677 71.1329 27.769 71.346 27.9821C71.5665 28.1952 71.9523 28.3018 72.5034 28.3018C72.7239 28.3018 72.9076 28.265 73.0546 28.1916C73.2015 28.1254 73.3191 28.0409 73.4073 27.938C73.5028 27.8278 73.5726 27.7139 73.6167 27.5963C73.6608 27.4787 73.6939 27.3722 73.7159 27.2767L73.5616 27.2216C73.5175 27.4641 73.4146 27.6808 73.253 27.8719C73.0987 28.0556 72.8929 28.1475 72.6357 28.1475C72.5622 28.1475 72.4851 28.1364 72.4042 28.1144C72.3307 28.0923 72.2609 28.0483 72.1948 27.9821C72.1287 27.9086 72.0735 27.8094 72.0295 27.6845C71.9927 27.5522 71.9743 27.3832 71.9743 27.1775V23.573H73.5396V23.4187H71.9743V21.9086C71.9009 21.9674 71.8237 22.0115 71.7429 22.0409C71.662 22.0629 71.5665 22.0739 71.4563 22.0739C71.3313 22.0739 71.2432 22.0666 71.1917 22.0519C71.1403 22.0372 71.0852 22.0188 71.0264 21.9968V23.4187ZM78.1582 28.1475H79.9328V27.9931H79.0841V23.4187H77.2984V23.573H78.1361V26.1303C78.1361 26.4389 78.0884 26.7182 77.9928 26.968C77.8973 27.2105 77.7761 27.42 77.6291 27.5963C77.4895 27.7727 77.3315 27.9086 77.1551 28.0042C76.9861 28.0997 76.8208 28.1475 76.6591 28.1475C76.468 28.1475 76.3137 28.1144 76.1961 28.0483C76.0786 27.9748 75.983 27.8792 75.9095 27.7617C75.8361 27.6367 75.7846 27.4934 75.7552 27.3318C75.7332 27.1701 75.7222 26.9937 75.7222 26.8027V23.4187H73.9255V23.573H74.7742V26.7035C74.7742 26.9239 74.7926 27.1113 74.8293 27.2656C74.8661 27.4126 74.9101 27.5339 74.9616 27.6294C75.013 27.7249 75.0681 27.8021 75.1269 27.8609C75.1931 27.9123 75.2519 27.9564 75.3033 27.9931C75.4062 28.0666 75.5495 28.1364 75.7332 28.2026C75.9169 28.2687 76.1557 28.3018 76.4497 28.3018C76.6922 28.3018 76.9016 28.2614 77.0779 28.1805C77.2617 28.107 77.4197 28.0115 77.5519 27.8939C77.6916 27.769 77.8055 27.6331 77.8936 27.4861C77.9892 27.3318 78.07 27.1811 78.1361 27.0342H78.1582V28.1475ZM81.9034 26.6704C81.8814 26.3544 81.8703 26.0054 81.8703 25.6233C81.8703 25.2852 81.8887 24.9839 81.9255 24.7194C81.9622 24.4475 82.0247 24.216 82.1128 24.025C82.2084 23.8339 82.337 23.6869 82.4986 23.5841C82.6676 23.4812 82.8808 23.4297 83.138 23.4297C83.4099 23.4297 83.634 23.4775 83.8103 23.573C83.9867 23.6686 84.13 23.7898 84.2402 23.9368C84.3137 24.0397 84.3762 24.1499 84.4276 24.2675C84.479 24.385 84.5195 24.5247 84.5489 24.6863C84.5783 24.848 84.5966 25.0354 84.604 25.2485C84.6187 25.4542 84.626 25.7004 84.626 25.987C84.626 26.2295 84.6077 26.4794 84.5709 26.7366C84.5342 26.9937 84.4644 27.2289 84.3615 27.442C84.2586 27.6478 84.1116 27.8168 83.9206 27.9491C83.7369 28.0813 83.4907 28.1475 83.182 28.1475C82.8808 28.1475 82.6419 28.0887 82.4656 27.9711C82.2892 27.8535 82.1569 27.6845 82.0687 27.4641C81.9806 27.2436 81.9255 26.9791 81.9034 26.6704ZM85.574 20.2001H83.7773V20.3544H84.626V24.3005H84.604C84.5011 24.0139 84.3247 23.7714 84.0749 23.573C83.825 23.3746 83.498 23.2754 83.0939 23.2754C82.7779 23.2754 82.4803 23.3452 82.201 23.4848C81.9218 23.6171 81.6756 23.7972 81.4625 24.025C81.2494 24.2454 81.0804 24.5063 80.9555 24.8076C80.8305 25.1089 80.7681 25.4248 80.7681 25.7555C80.7681 26.0936 80.8305 26.4169 80.9555 26.7255C81.0877 27.0268 81.2641 27.295 81.4845 27.5302C81.705 27.7653 81.9585 27.9527 82.2451 28.0923C82.5391 28.232 82.8477 28.3018 83.171 28.3018C83.4209 28.3018 83.6303 28.2577 83.7993 28.1695C83.9757 28.0887 84.119 27.9895 84.2292 27.8719C84.3468 27.7543 84.435 27.6331 84.4938 27.5081C84.5525 27.3832 84.5966 27.2767 84.626 27.1885H84.6481V28.1475H86.4227V27.9931H85.574V20.2001ZM87.9193 20.4426C87.8091 20.5528 87.754 20.6887 87.754 20.8504C87.754 21.0121 87.8091 21.1517 87.9193 21.2693C88.0369 21.3795 88.1765 21.4346 88.3382 21.4346C88.4999 21.4346 88.6358 21.3795 88.746 21.2693C88.8636 21.1517 88.9224 21.0121 88.9224 20.8504C88.9224 20.6887 88.8636 20.5528 88.746 20.4426C88.6358 20.325 88.4999 20.2662 88.3382 20.2662C88.1765 20.2662 88.0369 20.325 87.9193 20.4426ZM87.8863 27.9931H87.0375V28.1475H89.683V27.9931H88.8342V23.4187H87.0375V23.573H87.8863V27.9931ZM91.71 27.0342C91.6292 26.7255 91.5888 26.3103 91.5888 25.7886C91.5888 25.3477 91.6182 24.9803 91.677 24.6863C91.7357 24.385 91.8239 24.1425 91.9415 23.9588C92.0664 23.7678 92.2207 23.6318 92.4045 23.551C92.5882 23.4701 92.8049 23.4297 93.0548 23.4297C93.3046 23.4297 93.5214 23.4701 93.7051 23.551C93.8888 23.6318 94.0395 23.7678 94.1571 23.9588C94.282 24.1425 94.3738 24.385 94.4326 24.6863C94.4914 24.9803 94.5208 25.3477 94.5208 25.7886C94.5208 26.3103 94.4804 26.7255 94.3996 27.0342C94.3187 27.3428 94.2122 27.5816 94.0799 27.7506C93.9476 27.9123 93.7933 28.0189 93.617 28.0703C93.4406 28.1217 93.2532 28.1475 93.0548 28.1475C92.8564 28.1475 92.669 28.1217 92.4926 28.0703C92.3163 28.0189 92.162 27.9123 92.0297 27.7506C91.8974 27.5816 91.7909 27.3428 91.71 27.0342ZM90.718 24.7855C90.5637 25.0942 90.4865 25.4285 90.4865 25.7886C90.4865 26.134 90.56 26.461 90.707 26.7696C90.8539 27.0709 91.045 27.3355 91.2801 27.5633C91.5226 27.7911 91.7982 27.9711 92.1068 28.1034C92.4155 28.2356 92.7315 28.3018 93.0548 28.3018C93.3781 28.3018 93.6941 28.2356 94.0028 28.1034C94.3114 27.9711 94.5833 27.7911 94.8184 27.5633C95.0609 27.3355 95.2557 27.0709 95.4026 26.7696C95.5496 26.461 95.6231 26.134 95.6231 25.7886C95.6231 25.4285 95.5423 25.0942 95.3806 24.7855C95.2263 24.4769 95.0242 24.2123 94.7743 23.9919C94.5318 23.7641 94.2563 23.5877 93.9476 23.4628C93.6463 23.3379 93.3487 23.2754 93.0548 23.2754C92.7609 23.2754 92.4596 23.3379 92.1509 23.4628C91.8496 23.5877 91.5741 23.7641 91.3242 23.9919C91.0817 24.2123 90.8796 24.4769 90.718 24.7855Z" fill="black" fill-opacity="0.5"/>
</svg>
