<svg width="80" height="81" viewBox="0 0 80 81" fill="none" xmlns="http://www.w3.org/2000/svg">
<g filter="url(#filter0_d_1058_147)">
<path d="M24.3285 73.6C25.4619 73.7333 26.7619 73.8333 28.2285 73.9C29.7618 73.9667 31.4285 74 33.2285 74C35.4952 74 37.7285 73.9 39.9285 73.7C42.1952 73.4333 44.3285 72.9333 46.3285 72.2C48.3952 71.4 50.2952 70.3 52.0285 68.9C53.8285 67.4333 55.4285 65.5333 56.8285 63.2C58.9619 59.6 60.4285 55.9333 61.2285 52.2C62.0952 48.4 62.5285 44.2667 62.5285 39.8C62.5285 34.5333 62.0285 29.7667 61.0285 25.5C60.0285 21.1667 58.3619 17.5 56.0285 14.5C53.7619 11.4333 50.7285 9.06666 46.9285 7.39999C43.1285 5.73333 38.4285 4.9 32.8285 4.9C31.1619 4.9 29.6285 4.93333 28.2285 5C26.8952 5.06666 25.5952 5.13333 24.3285 5.2V73.6ZM3.22852 73.6H14.3285V5.2H3.22852V3.8H21.8285C22.7618 3.8 23.6952 3.8 24.6285 3.8C25.5619 3.73333 26.4952 3.66666 27.4285 3.6C28.3619 3.6 29.2952 3.6 30.2285 3.6C31.1619 3.53333 32.0952 3.5 33.0285 3.5C35.0285 3.5 36.7952 3.53333 38.3285 3.6C39.9285 3.66666 41.3952 3.79999 42.7285 4C44.1285 4.13333 45.4285 4.36667 46.6285 4.7C47.8952 4.96666 49.2285 5.33333 50.6285 5.8C54.6952 7.13333 58.1952 8.93333 61.1285 11.2C64.1285 13.4 66.5619 15.9667 68.4285 18.9C70.3619 21.8333 71.7619 25.0333 72.6285 28.5C73.5619 31.9667 74.0285 35.6 74.0285 39.4C74.0285 43.8 73.4952 47.7667 72.4285 51.3C71.3619 54.7667 69.8952 57.8667 68.0285 60.6C66.1619 63.2667 63.9619 65.6 61.4285 67.6C58.9619 69.5333 56.2952 71.1 53.4285 72.3C51.8285 73.0333 50.2952 73.6 48.8285 74C47.4285 74.4 45.9619 74.7 44.4285 74.9C42.9619 75.1 41.3285 75.2333 39.5285 75.3C37.7285 75.3667 35.6619 75.4 33.3285 75.4C32.3285 75.4 31.2619 75.3667 30.1285 75.3C28.9952 75.3 27.8618 75.2667 26.7285 75.2C25.5952 75.1333 24.4618 75.0667 23.3285 75C22.2618 75 21.2285 75 20.2285 75H3.22852V73.6Z" fill="white"/>
</g>
<defs>
<filter id="filter0_d_1058_147" x="0.228516" y="0.5" width="78.7998" height="79.9004" filterUnits="userSpaceOnUse" color-interpolation-filters="sRGB">
<feFlood flood-opacity="0" result="BackgroundImageFix"/>
<feColorMatrix in="SourceAlpha" type="matrix" values="0 0 0 0 0 0 0 0 0 0 0 0 0 0 0 0 0 0 127 0" result="hardAlpha"/>
<feOffset dx="1" dy="1"/>
<feGaussianBlur stdDeviation="2"/>
<feComposite in2="hardAlpha" operator="out"/>
<feColorMatrix type="matrix" values="0 0 0 0 0 0 0 0 0 0 0 0 0 0 0 0 0 0 0.25 0"/>
<feBlend mode="normal" in2="BackgroundImageFix" result="effect1_dropShadow_1058_147"/>
<feBlend mode="normal" in="SourceGraphic" in2="effect1_dropShadow_1058_147" result="shape"/>
</filter>
</defs>
</svg>
