<svg width="70" height="80" viewBox="0 0 70 80" fill="none" xmlns="http://www.w3.org/2000/svg">
<g filter="url(#filter0_d_1058_161)">
<path d="M3.79492 73.6H14.8949V5.2H3.79492V3.8H60.9949V21.1H59.8949C59.0283 18.5 58.0949 16.2333 57.0949 14.3C56.0949 12.3 54.8949 10.6333 53.4949 9.3C52.0949 7.9 50.4283 6.86666 48.4949 6.2C46.5616 5.53333 44.2283 5.2 41.4949 5.2H24.8949V36.1H31.3949C33.5949 36.1 35.4616 35.9 36.9949 35.5C38.5283 35.1 39.8283 34.3667 40.8949 33.3C42.0283 32.1667 42.9616 30.6667 43.6949 28.8C44.4949 26.8667 45.2616 24.4 45.9949 21.4H47.0949V52.5H45.9949C45.5283 50.5667 45.0283 48.7 44.4949 46.9C44.0283 45.1 43.3283 43.5 42.3949 42.1C41.5283 40.7 40.3283 39.6 38.7949 38.8C37.3283 37.9333 35.3949 37.5 32.9949 37.5H24.8949V73.6H43.7949C47.4616 73.6 50.4949 72.8333 52.8949 71.3C55.3616 69.7 57.3616 67.8333 58.8949 65.7C60.4283 63.5 61.5616 61.2333 62.2949 58.9C63.0283 56.5667 63.4949 54.6333 63.6949 53.1H64.7949V75H3.79492V73.6Z" fill="white"/>
</g>
<defs>
<filter id="filter0_d_1058_161" x="0.794922" y="0.799805" width="69" height="79.2002" filterUnits="userSpaceOnUse" color-interpolation-filters="sRGB">
<feFlood flood-opacity="0" result="BackgroundImageFix"/>
<feColorMatrix in="SourceAlpha" type="matrix" values="0 0 0 0 0 0 0 0 0 0 0 0 0 0 0 0 0 0 127 0" result="hardAlpha"/>
<feOffset dx="1" dy="1"/>
<feGaussianBlur stdDeviation="2"/>
<feComposite in2="hardAlpha" operator="out"/>
<feColorMatrix type="matrix" values="0 0 0 0 0 0 0 0 0 0 0 0 0 0 0 0 0 0 0.25 0"/>
<feBlend mode="normal" in2="BackgroundImageFix" result="effect1_dropShadow_1058_161"/>
<feBlend mode="normal" in="SourceGraphic" in2="effect1_dropShadow_1058_161" result="shape"/>
</filter>
</defs>
</svg>
