<svg width="79" height="83" viewBox="0 0 79 83" fill="none" xmlns="http://www.w3.org/2000/svg">
<g filter="url(#filter0_d_1058_153)">
<path d="M73.6051 50.5H65.6051V73.2H64.4051C63.6717 72.4667 63.0717 71.9667 62.6051 71.7C62.1384 71.4333 61.4051 71.3 60.4051 71.3C59.2051 71.3 57.9717 71.6333 56.7051 72.3C55.5051 72.9 54.0717 73.6 52.4051 74.4C50.8051 75.2 48.9051 75.9 46.7051 76.5C44.5051 77.1667 41.8384 77.5 38.7051 77.5C33.9717 77.5 29.7717 76.7333 26.1051 75.2C22.4384 73.6 18.9051 71.1 15.5051 67.7C12.1717 64.3667 9.40508 60.4333 7.20508 55.9C5.00508 51.3667 3.90508 46.2667 3.90508 40.6C3.90508 36.8 4.33841 33.4 5.20508 30.4C6.07175 27.3333 7.10508 24.6667 8.30508 22.4C9.57175 20.1333 10.8384 18.2333 12.1051 16.7C13.4384 15.1667 14.5384 13.9667 15.4051 13.1C18.4051 10.1 21.8384 7.66666 25.7051 5.8C29.5717 3.93333 33.9717 3 38.9051 3C41.4384 3 43.5051 3.2 45.1051 3.6C46.7717 4 48.2051 4.46666 49.4051 5C50.6051 5.46666 51.6717 5.9 52.6051 6.3C53.6051 6.7 54.7051 6.9 55.9051 6.9C57.2384 6.9 58.1717 6.73333 58.7051 6.4C59.3051 6 59.8717 5.46666 60.4051 4.8H61.9051V24.8H60.8051C60.5384 23.0667 60.0051 21.0333 59.2051 18.7C58.4717 16.3667 57.2717 14.1333 55.6051 12C54.0051 9.86666 51.8384 8.06666 49.1051 6.6C46.4384 5.13333 43.0051 4.4 38.8051 4.4C33.8051 4.4 29.7717 5.46666 26.7051 7.6C23.7051 9.66666 21.3384 12.4333 19.6051 15.9C17.9384 19.3 16.8051 23.1667 16.2051 27.5C15.6717 31.8333 15.4051 36.2 15.4051 40.6C15.4051 43.6 15.5384 46.6 15.8051 49.6C16.0717 52.6 16.5051 55.4333 17.1051 58.1C17.7717 60.7667 18.6717 63.2333 19.8051 65.5C20.9384 67.7667 22.4051 69.7 24.2051 71.3C26.2051 73.1 28.2717 74.3667 30.4051 75.1C32.5384 75.7667 35.3051 76.1 38.7051 76.1C40.7717 76.1 42.8384 75.7667 44.9051 75.1C46.9717 74.3667 48.8051 73.3 50.4051 71.9C52.0717 70.5 53.4051 68.7333 54.4051 66.6C55.4717 64.4 56.0051 61.8333 56.0051 58.9V50.5H43.1051V49.1H73.6051V50.5Z" fill="white"/>
</g>
<defs>
<filter id="filter0_d_1058_153" x="0.905273" y="0" width="77.7002" height="82.5" filterUnits="userSpaceOnUse" color-interpolation-filters="sRGB">
<feFlood flood-opacity="0" result="BackgroundImageFix"/>
<feColorMatrix in="SourceAlpha" type="matrix" values="0 0 0 0 0 0 0 0 0 0 0 0 0 0 0 0 0 0 127 0" result="hardAlpha"/>
<feOffset dx="1" dy="1"/>
<feGaussianBlur stdDeviation="2"/>
<feComposite in2="hardAlpha" operator="out"/>
<feColorMatrix type="matrix" values="0 0 0 0 0 0 0 0 0 0 0 0 0 0 0 0 0 0 0.25 0"/>
<feBlend mode="normal" in2="BackgroundImageFix" result="effect1_dropShadow_1058_153"/>
<feBlend mode="normal" in="SourceGraphic" in2="effect1_dropShadow_1058_153" result="shape"/>
</filter>
</defs>
</svg>
