<svg width="78" height="83" viewBox="0 0 78 83" fill="none" xmlns="http://www.w3.org/2000/svg">
<g filter="url(#filter0_d_1058_152)">
<path d="M14.6984 40.3C14.6984 46.3 15.0984 51.5333 15.8984 56C16.6984 60.4667 18.0318 64.2 19.8984 67.2C21.7651 70.2 24.1651 72.4333 27.0984 73.9C30.0318 75.3667 33.6651 76.1 37.9984 76.1C42.2651 76.1 45.8651 75.3667 48.7984 73.9C51.7984 72.4333 54.2318 70.2 56.0984 67.2C57.9651 64.2 59.2984 60.4667 60.0984 56C60.8984 51.5333 61.2984 46.3 61.2984 40.3C61.2984 35.7 60.9984 31.2667 60.3984 27C59.7984 22.6667 58.6318 18.8333 56.8984 15.5C55.2318 12.1 52.8651 9.4 49.7984 7.4C46.7984 5.4 42.8651 4.4 37.9984 4.4C33.1318 4.4 29.1651 5.4 26.0984 7.4C23.0984 9.4 20.7318 12.1 18.9984 15.5C17.3318 18.8333 16.1984 22.6667 15.5984 27C14.9984 31.2667 14.6984 35.7 14.6984 40.3ZM3.19844 40.3C3.19844 34.9667 4.23177 30.0333 6.29844 25.5C8.43177 20.9667 11.1318 17.0333 14.3984 13.7C17.7318 10.3667 21.4651 7.76666 25.5984 5.9C29.7318 3.96666 33.8651 3 37.9984 3C42.3984 3 46.6651 3.96666 50.7984 5.9C54.9984 7.76666 58.7318 10.3667 61.9984 13.7C65.2651 17.0333 67.8651 20.9667 69.7984 25.5C71.7984 30.0333 72.7984 34.9667 72.7984 40.3C72.7984 44.9667 71.8984 49.5333 70.0984 54C68.2984 58.4667 65.8318 62.4333 62.6984 65.9C59.5651 69.3667 55.8651 72.1667 51.5984 74.3C47.3984 76.4333 42.8651 77.5 37.9984 77.5C32.9984 77.5 28.3651 76.4667 24.0984 74.4C19.8318 72.3333 16.1318 69.6 12.9984 66.2C9.93177 62.7333 7.53177 58.7667 5.79844 54.3C4.0651 49.7667 3.19844 45.1 3.19844 40.3Z" fill="white"/>
</g>
<defs>
<filter id="filter0_d_1058_152" x="0.198242" y="0" width="77.6006" height="82.5" filterUnits="userSpaceOnUse" color-interpolation-filters="sRGB">
<feFlood flood-opacity="0" result="BackgroundImageFix"/>
<feColorMatrix in="SourceAlpha" type="matrix" values="0 0 0 0 0 0 0 0 0 0 0 0 0 0 0 0 0 0 127 0" result="hardAlpha"/>
<feOffset dx="1" dy="1"/>
<feGaussianBlur stdDeviation="2"/>
<feComposite in2="hardAlpha" operator="out"/>
<feColorMatrix type="matrix" values="0 0 0 0 0 0 0 0 0 0 0 0 0 0 0 0 0 0 0.25 0"/>
<feBlend mode="normal" in2="BackgroundImageFix" result="effect1_dropShadow_1058_152"/>
<feBlend mode="normal" in="SourceGraphic" in2="effect1_dropShadow_1058_152" result="shape"/>
</filter>
</defs>
</svg>
