<svg width="79" height="83" viewBox="0 0 79 83" fill="none" xmlns="http://www.w3.org/2000/svg">
<g filter="url(#filter0_d_1058_150)">
<path d="M15.3 40.3C15.3 46.3 15.7 51.5333 16.5 56C17.3 60.4667 18.6333 64.2 20.5 67.2C22.3667 70.2 24.7667 72.4333 27.7 73.9C30.6333 75.3667 34.2667 76.1 38.6 76.1C42.8667 76.1 46.4667 75.3667 49.4 73.9C52.4 72.4333 54.8333 70.2 56.7 67.2C58.5667 64.2 59.9 60.4667 60.7 56C61.5 51.5333 61.9 46.3 61.9 40.3C61.9 35.7 61.6 31.2667 61 27C60.4 22.6667 59.2333 18.8333 57.5 15.5C55.8333 12.1 53.4667 9.4 50.4 7.4C47.4 5.4 43.4667 4.4 38.6 4.4C33.7333 4.4 29.7667 5.4 26.7 7.4C23.7 9.4 21.3333 12.1 19.6 15.5C17.9333 18.8333 16.8 22.6667 16.2 27C15.6 31.2667 15.3 35.7 15.3 40.3ZM3.8 40.3C3.8 34.9667 4.83333 30.0333 6.9 25.5C9.03333 20.9667 11.7333 17.0333 15 13.7C18.3333 10.3667 22.0667 7.76666 26.2 5.9C30.3333 3.96666 34.4667 3 38.6 3C43 3 47.2667 3.96666 51.4 5.9C55.6 7.76666 59.3333 10.3667 62.6 13.7C65.8667 17.0333 68.4667 20.9667 70.4 25.5C72.4 30.0333 73.4 34.9667 73.4 40.3C73.4 44.9667 72.5 49.5333 70.7 54C68.9 58.4667 66.4333 62.4333 63.3 65.9C60.1667 69.3667 56.4667 72.1667 52.2 74.3C48 76.4333 43.4667 77.5 38.6 77.5C33.6 77.5 28.9667 76.4667 24.7 74.4C20.4333 72.3333 16.7333 69.6 13.6 66.2C10.5333 62.7333 8.13333 58.7667 6.4 54.3C4.66667 49.7667 3.8 45.1 3.8 40.3Z" fill="white"/>
</g>
<defs>
<filter id="filter0_d_1058_150" x="0.799805" y="0" width="77.6006" height="82.5" filterUnits="userSpaceOnUse" color-interpolation-filters="sRGB">
<feFlood flood-opacity="0" result="BackgroundImageFix"/>
<feColorMatrix in="SourceAlpha" type="matrix" values="0 0 0 0 0 0 0 0 0 0 0 0 0 0 0 0 0 0 127 0" result="hardAlpha"/>
<feOffset dx="1" dy="1"/>
<feGaussianBlur stdDeviation="2"/>
<feComposite in2="hardAlpha" operator="out"/>
<feColorMatrix type="matrix" values="0 0 0 0 0 0 0 0 0 0 0 0 0 0 0 0 0 0 0.25 0"/>
<feBlend mode="normal" in2="BackgroundImageFix" result="effect1_dropShadow_1058_150"/>
<feBlend mode="normal" in="SourceGraphic" in2="effect1_dropShadow_1058_150" result="shape"/>
</filter>
</defs>
</svg>
