<svg width="65" height="80" viewBox="0 0 65 80" fill="none" xmlns="http://www.w3.org/2000/svg">
<g filter="url(#filter0_d_1058_159)">
<path d="M24.1 39.2C25.4333 39.4667 26.8333 39.6667 28.3 39.8C29.7667 39.9333 31.0667 40 32.2 40C37.1333 40 40.9667 38.5667 43.7 35.7C46.5 32.7667 47.9 28.3667 47.9 22.5C47.9 19.1 47.5667 16.2667 46.9 14C46.2333 11.7333 45.1667 9.93333 43.7 8.6C42.3 7.19999 40.4333 6.23333 38.1 5.7C35.8333 5.16666 33.1 4.9 29.9 4.9C28.6333 4.9 27.4667 4.93333 26.4 5C25.4 5.06666 24.6333 5.13333 24.1 5.2V39.2ZM3 73.6H14.1V5.2H3V3.8H21.8C22.7333 3.8 23.6667 3.8 24.6 3.8C25.5333 3.73333 26.4667 3.66666 27.4 3.6C28.3333 3.6 29.2333 3.6 30.1 3.6C31.0333 3.53333 31.9667 3.5 32.9 3.5C36.7 3.5 40.2 3.96666 43.4 4.9C46.6667 5.76666 49.4667 7.03333 51.8 8.7C54.2 10.3667 56.0667 12.3667 57.4 14.7C58.7333 17.0333 59.4 19.6333 59.4 22.5C59.4 25.5 58.6333 28.1667 57.1 30.5C55.5667 32.8333 53.5333 34.8 51 36.4C48.4667 38 45.5 39.2333 42.1 40.1C38.7667 40.9667 35.2667 41.4 31.6 41.4C30.6667 41.4 29.4667 41.3333 28 41.2C26.5333 41 25.2333 40.8 24.1 40.6V73.6H35.2V75H3V73.6Z" fill="white"/>
</g>
<defs>
<filter id="filter0_d_1058_159" x="0" y="0.5" width="64.4004" height="79.5" filterUnits="userSpaceOnUse" color-interpolation-filters="sRGB">
<feFlood flood-opacity="0" result="BackgroundImageFix"/>
<feColorMatrix in="SourceAlpha" type="matrix" values="0 0 0 0 0 0 0 0 0 0 0 0 0 0 0 0 0 0 127 0" result="hardAlpha"/>
<feOffset dx="1" dy="1"/>
<feGaussianBlur stdDeviation="2"/>
<feComposite in2="hardAlpha" operator="out"/>
<feColorMatrix type="matrix" values="0 0 0 0 0 0 0 0 0 0 0 0 0 0 0 0 0 0 0.25 0"/>
<feBlend mode="normal" in2="BackgroundImageFix" result="effect1_dropShadow_1058_159"/>
<feBlend mode="normal" in="SourceGraphic" in2="effect1_dropShadow_1058_159" result="shape"/>
</filter>
</defs>
</svg>
