<svg width="79" height="81" viewBox="0 0 79 81" fill="none" xmlns="http://www.w3.org/2000/svg">
<g filter="url(#filter0_d_1058_165)">
<path d="M25.016 36.1H34.216C36.0827 36.1 37.7827 35.8667 39.316 35.4C40.8493 34.9333 42.1493 34.1333 43.216 33C44.3494 31.8 45.216 30.2 45.816 28.2C46.416 26.2 46.716 23.6667 46.716 20.6C46.716 17.1333 46.2494 14.3667 45.316 12.3C44.4494 10.1667 43.2827 8.56666 41.816 7.5C40.416 6.43333 38.816 5.73333 37.016 5.4C35.2827 5.06666 33.5494 4.9 31.816 4.9C30.616 4.9 29.3827 4.93333 28.116 5C26.916 5 25.8827 5.06666 25.016 5.2V36.1ZM3.91602 73.6H15.016V5.2H3.91602V3.8H22.916C23.716 3.8 24.516 3.8 25.316 3.8C26.116 3.73333 26.916 3.66666 27.716 3.6C28.516 3.6 29.316 3.6 30.116 3.6C30.916 3.53333 31.716 3.5 32.516 3.5C36.4494 3.5 39.916 3.73333 42.916 4.2C45.916 4.6 48.716 5.83333 51.316 7.9C53.6494 9.7 55.2827 11.7333 56.216 14C57.216 16.2667 57.716 18.4 57.716 20.4C57.716 21.4 57.516 22.7 57.116 24.3C56.7827 25.8333 55.9827 27.4333 54.716 29.1C53.516 30.7 51.7494 32.2 49.416 33.6C47.0827 34.9333 43.9827 35.8333 40.116 36.3V36.5C41.1827 36.6333 42.616 36.9 44.416 37.3C46.2827 37.6333 48.1494 38.2333 50.016 39.1C51.9494 39.9667 53.716 41.1333 55.316 42.6C56.916 44 58.0494 45.8333 58.716 48.1C59.116 49.4333 59.3827 50.9667 59.516 52.7C59.716 54.3667 59.8494 56.1 59.916 57.9C60.0494 59.7 60.1494 61.4333 60.216 63.1C60.3494 64.7667 60.5494 66.1667 60.816 67.3C61.216 69.0333 61.8494 70.6 62.716 72C63.5827 73.4 64.9827 74.1 66.916 74.1C67.7827 74.1 68.6827 73.9333 69.616 73.6C70.5494 73.2667 71.3827 72.7333 72.116 72L73.016 73.1C72.6827 73.3667 72.2827 73.6667 71.816 74C71.416 74.2667 70.8827 74.5333 70.216 74.8C69.5494 75.0667 68.716 75.2667 67.716 75.4C66.7827 75.6 65.616 75.7 64.216 75.7C61.5494 75.7 59.316 75.3667 57.516 74.7C55.7827 74.0333 54.3827 73.0667 53.316 71.8C52.2494 70.4667 51.4494 68.8667 50.916 67C50.4494 65.0667 50.116 62.8333 49.916 60.3L49.216 51.2C48.9494 47.8667 48.2827 45.2667 47.216 43.4C46.1494 41.5333 44.8827 40.1667 43.416 39.3C42.016 38.4333 40.5494 37.9333 39.016 37.8C37.4827 37.6 36.1494 37.5 35.016 37.5H25.016V73.6H36.116V75H3.91602V73.6Z" fill="white"/>
</g>
<defs>
<filter id="filter0_d_1058_165" x="0.916016" y="0.5" width="77.0996" height="80.2002" filterUnits="userSpaceOnUse" color-interpolation-filters="sRGB">
<feFlood flood-opacity="0" result="BackgroundImageFix"/>
<feColorMatrix in="SourceAlpha" type="matrix" values="0 0 0 0 0 0 0 0 0 0 0 0 0 0 0 0 0 0 127 0" result="hardAlpha"/>
<feOffset dx="1" dy="1"/>
<feGaussianBlur stdDeviation="2"/>
<feComposite in2="hardAlpha" operator="out"/>
<feColorMatrix type="matrix" values="0 0 0 0 0 0 0 0 0 0 0 0 0 0 0 0 0 0 0.25 0"/>
<feBlend mode="normal" in2="BackgroundImageFix" result="effect1_dropShadow_1058_165"/>
<feBlend mode="normal" in="SourceGraphic" in2="effect1_dropShadow_1058_165" result="shape"/>
</filter>
</defs>
</svg>
