<svg width="59" height="83" viewBox="0 0 59 83" fill="none" xmlns="http://www.w3.org/2000/svg">
<g filter="url(#filter0_d_1058_162)">
<path d="M3.15039 54.5H4.25039C4.98372 58.1 5.91706 61.1333 7.05039 63.6C8.25039 66.0667 9.55039 68.1 10.9504 69.7C12.3504 71.3 13.8171 72.5333 15.3504 73.4C16.8837 74.2667 18.4171 74.9 19.9504 75.3C21.5504 75.7 23.0504 75.9333 24.4504 76C25.9171 76.0667 27.2837 76.1 28.5504 76.1C32.0837 76.1 34.9837 75.5667 37.2504 74.5C39.5171 73.4333 41.3171 72.1 42.6504 70.5C43.9837 68.8333 44.9171 67.0667 45.4504 65.2C45.9837 63.2667 46.2504 61.5 46.2504 59.9C46.2504 57.5667 45.8171 55.5667 44.9504 53.9C44.0837 52.2333 42.9837 50.8333 41.6504 49.7C40.3171 48.5 38.8504 47.5333 37.2504 46.8C35.7171 46.0667 34.2504 45.5 32.8504 45.1L21.3504 41.6C15.9504 39.9333 11.8504 37.7333 9.05039 35C6.31706 32.2667 4.95039 28.6 4.95039 24C4.95039 21 5.48372 18.2333 6.55039 15.7C7.61706 13.1 9.11706 10.8667 11.0504 9C12.9837 7.13333 15.2837 5.66666 17.9504 4.6C20.6837 3.53333 23.6504 3 26.8504 3C29.1837 3 31.1171 3.2 32.6504 3.6C34.2504 4 35.6171 4.46666 36.7504 5C37.8837 5.46666 38.8837 5.9 39.7504 6.3C40.6837 6.7 41.6171 6.9 42.5504 6.9C43.4171 6.9 43.9837 6.8 44.2504 6.6C44.5837 6.33333 45.0171 5.73333 45.5504 4.8H46.9504V22.9H45.7504C45.3504 20.5 44.6504 18.2 43.6504 16C42.7171 13.7333 41.4837 11.7667 39.9504 10.1C38.4171 8.36666 36.5504 6.99999 34.3504 6C32.2171 4.93333 29.7171 4.4 26.8504 4.4C25.2504 4.4 23.4837 4.63333 21.5504 5.09999C19.6171 5.5 17.8171 6.23333 16.1504 7.3C14.4837 8.36667 13.0837 9.76667 11.9504 11.5C10.8837 13.2333 10.3504 15.4333 10.3504 18.1C10.3504 20.2333 10.7837 22.0667 11.6504 23.6C12.5171 25.0667 13.6171 26.3333 14.9504 27.4C16.3504 28.4 17.8837 29.2667 19.5504 30C21.2837 30.6667 23.0171 31.2667 24.7504 31.8L36.8504 35.6C38.1171 36 39.7171 36.5333 41.6504 37.2C43.5837 37.8667 45.4504 38.8667 47.2504 40.2C49.1171 41.5333 50.6837 43.3 51.9504 45.5C53.2837 47.7 53.9504 50.5 53.9504 53.9C53.9504 57.0333 53.3504 60.0333 52.1504 62.9C51.0171 65.7 49.3504 68.2 47.1504 70.4C44.9504 72.5333 42.2837 74.2667 39.1504 75.6C36.0171 76.8667 32.4837 77.5 28.5504 77.5C27.1504 77.5 25.9171 77.4667 24.8504 77.4C23.7837 77.4 22.7837 77.3333 21.8504 77.2C20.9171 77.0667 19.9837 76.9 19.0504 76.7C18.1171 76.5667 17.0837 76.3333 15.9504 76C14.6171 75.6 13.1837 75.1333 11.6504 74.6C10.1171 74.0667 8.78372 73.8 7.65039 73.8C6.65039 73.8 5.95039 74 5.55039 74.4C5.21706 74.8 4.91706 75.3333 4.65039 76H3.15039V54.5Z" fill="white"/>
</g>
<defs>
<filter id="filter0_d_1058_162" x="0.150391" y="0" width="58.7998" height="82.5" filterUnits="userSpaceOnUse" color-interpolation-filters="sRGB">
<feFlood flood-opacity="0" result="BackgroundImageFix"/>
<feColorMatrix in="SourceAlpha" type="matrix" values="0 0 0 0 0 0 0 0 0 0 0 0 0 0 0 0 0 0 127 0" result="hardAlpha"/>
<feOffset dx="1" dy="1"/>
<feGaussianBlur stdDeviation="2"/>
<feComposite in2="hardAlpha" operator="out"/>
<feColorMatrix type="matrix" values="0 0 0 0 0 0 0 0 0 0 0 0 0 0 0 0 0 0 0.25 0"/>
<feBlend mode="normal" in2="BackgroundImageFix" result="effect1_dropShadow_1058_162"/>
<feBlend mode="normal" in="SourceGraphic" in2="effect1_dropShadow_1058_162" result="shape"/>
</filter>
</defs>
</svg>
