<svg width="70" height="80" viewBox="0 0 70 80" fill="none" xmlns="http://www.w3.org/2000/svg">
<g filter="url(#filter0_d_1058_151)">
<path d="M18.1 73.6H29.2V5.2H23.4C22.0667 5.2 20.5667 5.33333 18.9 5.6C17.2333 5.8 15.5333 6.43333 13.8 7.5C12.1333 8.56666 10.5 10.2667 8.9 12.6C7.36667 14.8667 6.03333 18.0333 4.9 22.1H3.8V3.8H64.6V22.1H63.5C62.3667 18.0333 61 14.8667 59.4 12.6C57.8667 10.2667 56.2333 8.56666 54.5 7.5C52.8333 6.43333 51.1667 5.8 49.5 5.6C47.8333 5.33333 46.3333 5.2 45 5.2H39.2V73.6H50.3V75H18.1V73.6Z" fill="white"/>
</g>
<defs>
<filter id="filter0_d_1058_151" x="0.799805" y="0.799805" width="68.7998" height="79.2002" filterUnits="userSpaceOnUse" color-interpolation-filters="sRGB">
<feFlood flood-opacity="0" result="BackgroundImageFix"/>
<feColorMatrix in="SourceAlpha" type="matrix" values="0 0 0 0 0 0 0 0 0 0 0 0 0 0 0 0 0 0 127 0" result="hardAlpha"/>
<feOffset dx="1" dy="1"/>
<feGaussianBlur stdDeviation="2"/>
<feComposite in2="hardAlpha" operator="out"/>
<feColorMatrix type="matrix" values="0 0 0 0 0 0 0 0 0 0 0 0 0 0 0 0 0 0 0.25 0"/>
<feBlend mode="normal" in2="BackgroundImageFix" result="effect1_dropShadow_1058_151"/>
<feBlend mode="normal" in="SourceGraphic" in2="effect1_dropShadow_1058_151" result="shape"/>
</filter>
</defs>
</svg>
